<svg width="33" height="31" viewBox="0 0 33 31" fill="none" xmlns="http://www.w3.org/2000/svg">
<path d="M19.4135 30.8953H7.16753C7.05774 30.8953 6.95144 30.859 6.86722 30.7928C6.783 30.7266 6.72622 30.6348 6.70678 30.5333L4.50229 19.029C4.49017 18.9657 4.49298 18.9006 4.51054 18.8384C4.5281 18.7762 4.55997 18.7184 4.6039 18.6691C4.64784 18.6197 4.70277 18.58 4.76483 18.5527C4.82688 18.5255 4.89454 18.5113 4.96304 18.5113H21.618C21.6865 18.5113 21.7542 18.5255 21.8162 18.5527C21.8783 18.58 21.9332 18.6197 21.9771 18.6691C22.0211 18.7184 22.0529 18.7762 22.0705 18.8384C22.088 18.9006 22.0909 18.9657 22.0787 19.029L19.8747 30.5333C19.8553 30.6349 19.7984 30.7268 19.7141 30.793C19.6298 30.8591 19.5234 30.8954 19.4135 30.8953V30.8953ZM7.55898 30.0155H19.022L21.0598 19.3911H5.52306L7.55898 30.0155Z" fill="#FDFDFD"/>
<path d="M23.0672 19.3911H3.51383C3.31931 19.3908 3.13282 19.3181 2.99527 19.1889C2.85773 19.0597 2.78034 18.8845 2.78009 18.7018V16.2575C2.78047 16.0748 2.8579 15.8997 2.99544 15.7706C3.13297 15.6415 3.31939 15.5689 3.51383 15.5686H23.0672C23.2617 15.5689 23.4481 15.6415 23.5856 15.7706C23.7231 15.8997 23.8006 16.0748 23.8009 16.2575V18.7022C23.8006 18.8849 23.7231 19.06 23.5856 19.1891C23.4481 19.3182 23.2617 19.3908 23.0672 19.3911V19.3911ZM3.71658 18.5113H22.8645V16.4479H3.71658V18.5113Z" fill="#FDFDFD"/>
<path d="M13.5263 16.4479H13.4907C13.3669 16.4391 13.2518 16.3845 13.1709 16.2961C13.0899 16.2077 13.0497 16.0927 13.059 15.9764C13.1331 15.0461 13.3002 14.1245 13.5581 13.2237C14.4808 9.95171 16.5352 7.06067 19.398 5.00528C19.4468 4.97016 19.5026 4.94441 19.562 4.92952C19.6214 4.91462 19.6833 4.91087 19.7443 4.91846C19.8053 4.92606 19.864 4.94486 19.9173 4.9738C19.9705 5.00273 20.0171 5.04123 20.0545 5.08709C20.0919 5.13296 20.1193 5.18529 20.1351 5.2411C20.151 5.29692 20.155 5.35512 20.1469 5.41238C20.1388 5.46965 20.1188 5.52485 20.088 5.57485C20.0572 5.62485 20.0162 5.66866 19.9674 5.70378C17.2692 7.64068 15.3329 10.3653 14.4632 13.4489C14.221 14.2973 14.0643 15.1651 13.995 16.041C13.9861 16.152 13.9328 16.2556 13.8458 16.3311C13.7589 16.4066 13.6447 16.4483 13.5263 16.4479V16.4479Z" fill="#FDFDFD"/>
<path d="M19.3007 11.2716C17.9057 11.2205 16.5456 10.8469 15.3412 10.1838C15.2498 10.1377 15.1774 10.0643 15.1352 9.9753C15.0734 9.84334 13.6368 6.73702 15.4573 3.98434C17.033 1.60599 20.498 0.300474 25.7568 0.104735C25.8211 0.101862 25.8854 0.111734 25.9454 0.13371C26.0054 0.155687 26.0599 0.189275 26.1052 0.232295C26.1508 0.274866 26.1866 0.325818 26.2104 0.381972C26.2342 0.438126 26.2454 0.498278 26.2433 0.558675C26.2325 0.878457 25.9268 8.41862 21.795 10.6562C21.0367 11.0664 20.1756 11.2789 19.3007 11.2716ZM15.9345 9.48353C18.0781 10.5313 19.8911 10.6712 21.3249 9.89481C24.4565 8.19825 25.1401 2.67091 25.274 1.00734C20.6384 1.25102 17.607 2.40567 16.2547 4.44224C14.8907 6.49861 15.7008 8.89543 15.934 9.48309L15.9345 9.48353Z" fill="#FDFDFD"/>
<path d="M14.0105 13.7775C13.9178 13.7775 13.8273 13.7517 13.7503 13.7034C13.6733 13.6551 13.6133 13.5865 13.5778 13.5061C13.0339 12.2726 12.2326 11.1539 11.2212 10.216C10.2097 9.278 9.00864 8.53975 7.6887 8.04473C7.63039 8.02408 7.57706 7.99272 7.53182 7.95246C7.48659 7.9122 7.45036 7.86387 7.42526 7.8103C7.40017 7.75672 7.38671 7.69898 7.38567 7.64046C7.38463 7.58193 7.39604 7.5238 7.41922 7.46947C7.44241 7.41514 7.4769 7.3657 7.52069 7.32405C7.56447 7.28241 7.61666 7.24939 7.6742 7.22693C7.73174 7.20447 7.79348 7.19303 7.85579 7.19327C7.9181 7.19351 7.97973 7.20544 8.03707 7.22834C9.47269 7.76692 10.779 8.56998 11.8791 9.5902C12.9793 10.6104 13.8509 11.8271 14.4426 13.1687C14.4722 13.2355 14.4838 13.3082 14.4763 13.3802C14.4689 13.4523 14.4426 13.5215 14.3999 13.5817C14.3571 13.6419 14.2992 13.6913 14.2313 13.7254C14.1633 13.7596 14.0875 13.7775 14.0105 13.7775V13.7775Z" fill="#FDFDFD"/>
<path d="M8.35125 11.8337C8.05318 11.8334 7.75633 11.798 7.46768 11.7282C4.14315 10.9302 2.39145 5.80934 2.317 5.59161C2.29766 5.53379 2.29124 5.47285 2.29814 5.4126C2.30505 5.35235 2.32514 5.29409 2.35715 5.24147C2.38915 5.18885 2.43239 5.14302 2.48414 5.10684C2.53589 5.07066 2.59504 5.04491 2.65788 5.03122C6.31018 4.21703 8.96231 4.49502 10.5445 5.85728C12.3875 7.44432 12.0302 9.87149 12.0143 9.97442C11.9987 10.071 11.9493 10.16 11.8738 10.2273C10.692 11.2958 9.51062 11.8337 8.35125 11.8337ZM3.38272 5.77899C3.87204 7.00313 5.39617 10.3228 7.70086 10.8748C8.76705 11.1299 9.91097 10.7363 11.1017 9.70258C11.1387 9.21125 11.156 7.57188 9.90535 6.49993C8.63407 5.4117 6.44082 5.16934 3.38272 5.77899V5.77899Z" fill="#FDFDFD"/>
</svg>
