<svg width="41" height="37" viewBox="0 0 41 37" fill="none" xmlns="http://www.w3.org/2000/svg">
    <path
        d="M36.7292 37H4.27083C1.91504 37 0 35.2702 0 33.1458V3.85417C0 1.72975 1.91504 0 4.27083 0H36.7292C39.085 0 41 1.72975 41 3.85417V33.1458C41 35.2702 39.085 37 36.7292 37ZM4.27083 1.54167C2.85804 1.54167 1.70833 2.57921 1.70833 3.85417V33.1458C1.70833 34.4208 2.85804 35.4583 4.27083 35.4583H36.7292C38.142 35.4583 39.2917 34.4208 39.2917 33.1458V3.85417C39.2917 2.57921 38.142 1.54167 36.7292 1.54167H4.27083Z"
        fill="#FFFCFC" />
    <path
        d="M28.1875 12.3333H12.8125C12.341 12.3333 11.9584 11.988 11.9584 11.5625C11.9584 11.137 12.341 10.7917 12.8125 10.7917H28.1875C28.659 10.7917 29.0417 11.137 29.0417 11.5625C29.0417 11.988 28.659 12.3333 28.1875 12.3333Z"
        fill="#FFFCFC" />
    <path
        d="M28.1875 19.2708H12.8125C12.341 19.2708 11.9584 18.9255 11.9584 18.5C11.9584 18.0745 12.341 17.7292 12.8125 17.7292H28.1875C28.659 17.7292 29.0417 18.0745 29.0417 18.5C29.0417 18.9255 28.659 19.2708 28.1875 19.2708Z"
        fill="#FFFCFC" />
    <path 
        d="M28.1875 26.2083H12.8125C12.341 26.2083 11.9584 25.863 11.9584 25.4375C11.9584 25.012 12.341 24.6667 12.8125 24.6667H28.1875C28.659 24.6667 29.0417 25.012 29.0417 25.4375C29.0417 25.863 28.659 26.2083 28.1875 26.2083Z"
        fill="#FFFCFC" />
</svg>