<svg width="36" height="33" viewBox="0 0 36 33" fill="none" xmlns="http://www.w3.org/2000/svg">
<path d="M18 0C18 0 15.258 8.69402 15.3866 13.1041C15.5606 19.066 16.6664 19.3941 16.6664 19.3941H19.3334C19.3334 19.3941 20.4394 19.0661 20.6133 13.1041C20.7419 8.69402 18 0 18 0Z" fill="#66AD66"/>
<path d="M18 0L17.8498 19.3941H19.3335C19.3335 19.3941 20.4395 19.0661 20.6134 13.1041C20.742 8.69402 18 0 18 0Z" fill="#5E9E5E"/>
<path d="M23.64 19.3941C20.9429 12.0483 24.9034 1.91516 24.9034 1.91516C24.9034 1.91516 21.6008 4.49857 18.9187 9.57644C17.1985 12.8333 17.6238 16.8974 18.1501 19.3941H23.64Z" fill="#9CD38C"/>
<path d="M23.6401 19.3941C20.9429 12.0483 24.9034 1.91516 24.9034 1.91516C24.9034 1.91516 17.635 10.8464 20.4627 19.3941H23.6401Z" fill="#80C56E"/>
<path d="M12.36 19.3941C15.0572 12.0483 11.0966 1.91516 11.0966 1.91516C11.0966 1.91516 14.3992 4.49857 17.0813 9.57644C18.8015 12.8333 18.3762 16.8974 17.8499 19.3941H12.36Z" fill="#9CD38C"/>
<path d="M15.9844 19.3941C17.687 12.9366 11.0965 1.91516 11.0965 1.91516C11.0965 1.91516 14.3991 4.49857 17.0812 9.57644C18.8014 12.8333 18.3761 16.8974 17.8498 19.3941H15.9844Z" fill="#80C56E"/>
<path d="M24.8197 19.3941C25.154 15.2554 30.3884 12.0059 30.3884 12.0059C30.3884 12.0059 26.1009 12.4755 23.0938 14.7098C20.9988 16.2662 20.221 18.6838 20.0305 19.394H24.8197V19.3941Z" fill="#9CD38C"/>
<path d="M24.8197 19.3941C25.154 15.2554 30.3884 12.0059 30.3884 12.0059C30.3884 12.0059 24.4467 13.6117 22.1109 19.3941H24.8197Z" fill="#80C56E"/>
<path d="M11.1952 19.3941C10.8609 15.2554 5.6265 12.0059 5.6265 12.0059C5.6265 12.0059 9.91401 12.4755 12.9211 14.7098C15.0161 16.2662 15.794 18.6838 15.9844 19.394H11.1952V19.3941Z" fill="#80C56E"/>
<path d="M11.1952 19.3941C10.8609 15.2554 5.6265 12.0059 5.6265 12.0059C5.6265 12.0059 11.8738 13.7334 13.8891 19.3941H11.1952Z" fill="#9CD38C"/>
<path d="M22.976 9.30264C18.747 12.0657 16.9884 18.1963 16.6792 19.3941H22.1108C22.8135 11.203 31.5731 5.59137 31.5731 5.59137C31.5731 5.59137 27.6745 6.23281 22.976 9.30264Z" fill="#66AD66"/>
<path d="M19.2797 19.3941H22.1109C22.8136 11.203 31.5732 5.59137 31.5732 5.59137C31.5732 5.59137 21.8749 9.42098 19.2797 19.3941Z" fill="#5E9E5E"/>
<path d="M13.0241 9.30264C17.2531 12.0657 19.0116 18.1963 19.3209 19.3941H13.8892C13.1865 11.203 4.42691 5.59137 4.42691 5.59137C4.42691 5.59137 8.3256 6.23281 13.0241 9.30264Z" fill="#66AD66"/>
<path d="M13.0241 9.30264C17.2531 12.0657 19.0116 18.1963 19.3209 19.3941H16.6665C15.7041 9.42098 4.42691 5.59137 4.42691 5.59137C4.42691 5.59137 8.3256 6.23281 13.0241 9.30264Z" fill="#5E9E5E"/>
<path d="M22.3266 33H13.6585C13.1276 33 12.666 32.6663 12.5422 32.1932L9.25436 19.6292H26.7308L23.4429 32.1932C23.3191 32.6663 22.8575 33 22.3266 33Z" fill="#FEC37D"/>
<path d="M23.2574 19.6292L19.9696 32.1931C19.8458 32.6663 19.3842 32.9999 18.8533 32.9999H22.3266C22.8575 32.9999 23.3191 32.6663 23.4429 32.1931L26.7307 19.6292H23.2574Z" fill="#F9AE5D"/>
<path d="M27.9064 21.2818H8.07868C7.82682 21.2818 7.62263 21.0947 7.62263 20.8638V19.267C7.62263 19.0361 7.82682 18.8489 8.07868 18.8489H27.9064C28.1582 18.8489 28.3624 19.0361 28.3624 19.267V20.8638C28.3624 21.0947 28.1582 21.2818 27.9064 21.2818Z" fill="#F2A559"/>
<path d="M27.9064 18.849H24.626V21.2818H27.9064C28.1582 21.2818 28.3624 21.0947 28.3624 20.8638V19.267C28.3623 19.0362 28.1582 18.849 27.9064 18.849Z" fill="#EA8F3D"/>
<path d="M25.3482 24.9124L25.6088 23.9164H10.3763L10.6369 24.9124H25.3482Z" fill="#F2A559"/>
<path d="M21.8748 24.9124H25.3482L25.404 24.6992L25.6088 23.9164H22.1355L21.8748 24.9124Z" fill="#EA8F3D"/>
</svg>
