<svg width="540" height="248" viewBox="0 0 540 248" fill="none" xmlns="http://www.w3.org/2000/svg">
<g clip-path="url(#clip0)">
<path d="M126 0C126 0 114.118 35.8299 114.675 54.0048C115.429 78.5751 120.221 79.9271 120.221 79.9271H131.778C131.778 79.9271 136.571 78.5753 137.324 54.0048C137.882 35.8299 126 0 126 0Z" fill="#66AD66"/>
<path d="M126 0L125.349 79.9271H131.779C131.779 79.9271 136.571 78.5753 137.325 54.0048C137.882 35.8299 126 0 126 0Z" fill="#5E9E5E"/>
<path d="M150.44 79.927C138.752 49.6538 155.915 7.89276 155.915 7.89276C155.915 7.89276 141.604 18.5395 129.981 39.4665C122.527 52.8886 124.37 69.6378 126.65 79.927H150.44Z" fill="#9CD38C"/>
<path d="M150.44 79.927C138.752 49.6538 155.915 7.89276 155.915 7.89276C155.915 7.89276 124.418 44.7004 136.672 79.927H150.44Z" fill="#80C56E"/>
<path d="M101.56 79.927C113.248 49.6538 96.0852 7.89276 96.0852 7.89276C96.0852 7.89276 110.397 18.5395 122.019 39.4665C129.473 52.8886 127.63 69.6378 125.35 79.927H101.56Z" fill="#9CD38C"/>
<path d="M117.266 79.927C124.644 53.3146 96.0848 7.89276 96.0848 7.89276C96.0848 7.89276 110.396 18.5395 122.019 39.4665C129.473 52.8886 127.63 69.6378 125.349 79.927H117.266Z" fill="#80C56E"/>
<path d="M155.552 79.9271C157.001 62.8705 179.683 49.4788 179.683 49.4788C179.683 49.4788 161.104 51.4141 148.073 60.622C138.995 67.0366 135.624 76.9999 134.799 79.9268H155.552V79.9271Z" fill="#9CD38C"/>
<path d="M155.552 79.9271C157.001 62.8705 179.683 49.4788 179.683 49.4788C179.683 49.4788 153.936 56.0965 143.814 79.9271H155.552Z" fill="#80C56E"/>
<path d="M96.5127 79.9271C95.0639 62.8705 72.3815 49.4788 72.3815 49.4788C72.3815 49.4788 90.9607 51.4141 103.992 60.622C113.07 67.0366 116.441 76.9999 117.266 79.9268H96.5127V79.9271Z" fill="#80C56E"/>
<path d="M96.5127 79.9271C95.0639 62.8705 72.3815 49.4788 72.3815 49.4788C72.3815 49.4788 99.4533 56.598 108.186 79.9271H96.5127Z" fill="#9CD38C"/>
<path d="M147.563 38.3382C129.237 49.7255 121.617 74.9909 120.277 79.9271H143.814C146.859 46.1699 184.817 23.0432 184.817 23.0432C184.817 23.0432 167.923 25.6867 147.563 38.3382Z" fill="#66AD66"/>
<path d="M131.546 79.9271H143.814C146.859 46.1699 184.817 23.0432 184.817 23.0432C184.817 23.0432 142.791 38.8259 131.546 79.9271Z" fill="#5E9E5E"/>
<path d="M104.438 38.3382C122.763 49.7255 130.384 74.9909 131.724 79.9271H108.187C105.142 46.1699 67.1833 23.0432 67.1833 23.0432C67.1833 23.0432 84.0776 25.6867 104.438 38.3382Z" fill="#66AD66"/>
<path d="M104.438 38.3382C122.763 49.7255 130.384 74.9909 131.724 79.9271H120.221C116.051 38.8259 67.1833 23.0432 67.1833 23.0432C67.1833 23.0432 84.0776 25.6867 104.438 38.3382Z" fill="#5E9E5E"/>
<path d="M143.188 137.336H105.626C103.325 137.336 101.325 135.961 100.788 134.011L86.5412 82.2326H162.272L148.025 134.011C147.488 135.961 145.488 137.336 143.188 137.336Z" fill="#FEC37D"/>
<path d="M148.782 80.8958L134.535 132.675C133.998 134.625 131.998 136 129.698 136H144.749C147.049 136 149.049 134.625 149.586 132.675L163.833 80.8958H148.782Z" fill="#F9AE5D"/>
<path d="M168.928 87.707H83.0077C81.9163 87.707 81.0315 86.9356 81.0315 85.9841V79.4033C81.0315 78.4518 81.9163 77.6805 83.0077 77.6805H168.928C170.019 77.6805 170.904 78.4518 170.904 79.4033V85.9841C170.904 86.9356 170.019 87.707 168.928 87.707Z" fill="#F2A559"/>
<path d="M168.928 77.6807H154.713V87.707H168.928C170.019 87.707 170.904 86.9356 170.904 85.9842V79.4033C170.903 78.4521 170.019 77.6807 168.928 77.6807Z" fill="#EA8F3D"/>
<path d="M157.842 102.669L158.972 98.5647H92.964L94.0932 102.669H157.842Z" fill="#F2A559"/>
<path d="M142.791 102.669H157.842L158.084 101.791L158.971 98.5647H143.92L142.791 102.669Z" fill="#EA8F3D"/>
</g>
<path d="M209.535 117H209.185V66.46L218.565 65.76C224.025 65.76 227.548 66.6933 229.135 68.56C229.741 69.3067 230.185 69.96 230.465 70.52C230.791 71.08 231.048 71.9433 231.235 73.11C231.421 74.6033 231.515 76.5633 231.515 78.99C231.515 81.37 231.468 83.0733 231.375 84.1C231.328 85.1267 231.071 86.34 230.605 87.74C230.185 89.0933 229.531 90.0733 228.645 90.68C226.451 92.2667 223.091 93.06 218.565 93.06H213.315L213.595 94.81V113.78C213.595 115.367 213.408 116.3 213.035 116.58C212.661 116.86 211.495 117 209.535 117ZM218.565 89.07C221.505 89.07 223.371 88.8133 224.165 88.3C225.005 87.74 225.588 87.2733 225.915 86.9C226.241 86.5267 226.475 85.8733 226.615 84.94C226.801 84.0067 226.895 83.2133 226.895 82.56C226.941 81.9067 226.965 80.8567 226.965 79.41C226.965 77.9633 226.941 76.9133 226.895 76.26C226.895 75.6067 226.801 74.8133 226.615 73.88C226.475 72.9467 226.241 72.2933 225.915 71.92C225.588 71.5467 225.121 71.15 224.515 70.73C223.488 70.0767 221.505 69.75 218.565 69.75H213.315L213.595 71.5V87.32L213.315 89.07H218.565ZM240.613 114.06V65.76C242.667 65.76 243.857 65.9 244.183 66.18C244.557 66.46 244.743 67.3933 244.743 68.98V117.28C242.69 117.28 241.477 117.14 241.103 116.86C240.777 116.58 240.613 115.647 240.613 114.06ZM264.673 90.61V86.69C264.673 84.8233 264.44 83.6567 263.973 83.19C263.553 82.6767 262.503 82.42 260.823 82.42L257.323 83.12C256.857 83.2133 256.507 83.26 256.273 83.26C254.64 83.26 253.823 82.21 253.823 80.11L260.823 78.92C264.323 78.92 266.447 79.3867 267.193 80.32C267.567 80.7867 267.847 81.1833 268.033 81.51C268.267 81.8367 268.407 82.42 268.453 83.26C268.593 84.6133 268.663 86.1767 268.663 87.95V117C266.563 117 265.327 116.86 264.953 116.58C264.58 116.253 264.393 115.227 264.393 113.5C263.927 113.78 263.273 114.293 262.433 115.04C260.66 116.673 259.167 117.49 257.953 117.49C255.107 117.49 253.403 116.603 252.843 114.83C252.33 113.01 252.073 108.017 252.073 99.85C252.073 96.7233 253.427 94.6467 256.133 93.62C258.373 92.78 261.22 92.36 264.673 92.36H264.953L264.673 90.61ZM264.393 96.28C261.687 96.28 259.633 96.49 258.233 96.91C256.88 97.2833 256.203 98.0767 256.203 99.29C256.203 107.83 256.39 112.497 256.763 113.29C256.95 113.617 257.37 113.78 258.023 113.78C258.677 113.78 259.377 113.593 260.123 113.22C260.917 112.847 261.733 112.357 262.573 111.75C263.46 111.097 264.16 110.653 264.673 110.42L264.393 108.67V98.03L264.673 96.28H264.393ZM291.819 113.78V98.31C291.819 91.17 291.609 86.7833 291.189 85.15C290.769 83.47 289.509 82.63 287.409 82.63L280.549 85.08L280.829 86.83V117C278.776 117 277.562 116.86 277.189 116.58C276.862 116.3 276.699 115.367 276.699 113.78V79.41C278.752 79.41 279.942 79.5033 280.269 79.69C280.642 79.83 280.829 80.4367 280.829 81.51L287.129 78.92C291.329 78.92 293.849 79.9933 294.689 82.14C295.529 84.2867 295.949 89.7 295.949 98.38V117C293.896 117 292.682 116.86 292.309 116.58C291.982 116.3 291.819 115.367 291.819 113.78ZM303.764 101.04V84.94L304.044 83.19H301.034V79.41H304.044L303.764 76.96V73.88C305.818 73.88 307.008 74.02 307.334 74.3C307.708 74.58 307.894 75.5133 307.894 77.1L307.614 79.41H314.054C314.054 81.1367 313.891 82.21 313.564 82.63C313.284 83.0033 312.328 83.19 310.694 83.19H307.614L307.894 84.94V101.04C307.894 106.36 308.034 109.813 308.314 111.4C308.594 112.987 309.388 113.78 310.694 113.78H315.454V117L310.624 117.35C307.404 117.35 305.444 116.37 304.744 114.41C304.091 112.403 303.764 107.947 303.764 101.04ZM324.809 72.06C324.202 72.6667 323.455 72.97 322.569 72.97C321.682 72.97 320.912 72.6667 320.259 72.06C319.652 71.4067 319.349 70.6367 319.349 69.75C319.349 68.8167 319.652 68.07 320.259 67.51C320.912 66.9033 321.682 66.6 322.569 66.6C323.455 66.6 324.202 66.9033 324.809 67.51C325.462 68.1167 325.789 68.8633 325.789 69.75C325.789 70.6367 325.462 71.4067 324.809 72.06ZM320.539 114.06V79.41C322.592 79.41 323.782 79.55 324.109 79.83C324.482 80.0633 324.669 80.9967 324.669 82.63V117.28C322.615 117.28 321.402 117.14 321.029 116.86C320.702 116.58 320.539 115.647 320.539 114.06ZM330.907 83.19V79.41H334.687L334.337 77.31V76.54C334.337 72.62 334.501 70.3567 334.827 69.75C335.154 69.1433 335.504 68.5833 335.877 68.07C336.251 67.5567 336.717 67.2067 337.277 67.02C337.837 66.7867 338.537 66.5533 339.377 66.32C340.777 65.9933 343.017 65.83 346.097 65.83V69.12C342.457 69.12 340.264 69.4933 339.517 70.24C338.817 70.94 338.467 73.04 338.467 76.54V77.31L338.117 79.41H344.417V83.19H338.047L338.397 85.29V127.01C338.351 129.017 338.164 130.183 337.837 130.51C337.511 130.837 336.321 131 334.267 131L334.337 85.29L334.687 83.19H330.907ZM347.669 131V127.71C349.862 127.71 351.565 126.94 352.779 125.4C354.039 123.907 354.669 122.017 354.669 119.73C354.669 118.797 352.195 105.357 347.249 79.41C349.255 79.41 350.445 79.55 350.819 79.83C351.239 80.0633 351.612 80.9967 351.939 82.63L356.839 112.1H357.749L362.859 79.41C365.099 79.41 366.289 79.62 366.429 80.04C366.522 80.18 366.569 80.4367 366.569 80.81C366.569 83.19 364.305 95.2533 359.779 117C359.685 117.42 359.522 118.283 359.289 119.59C359.055 120.897 358.869 121.783 358.729 122.25C358.635 122.717 358.425 123.463 358.099 124.49C357.772 125.563 357.445 126.31 357.119 126.73C356.792 127.15 356.325 127.71 355.719 128.41C355.159 129.11 354.529 129.6 353.829 129.88C351.869 130.627 349.815 131 347.669 131Z" fill="black"/>
<path d="M188.582 194.63C187.942 194.63 187.595 194.577 187.542 194.47C187.515 194.417 187.502 194.337 187.502 194.23C187.502 194.124 188.235 189.457 189.702 180.23H189.802C190.429 180.23 190.769 180.284 190.822 180.39C190.849 180.444 190.862 180.524 190.862 180.63C190.862 180.737 190.135 185.404 188.682 194.63H188.582ZM194.36 194.77C193.56 194.77 193 194.617 192.68 194.31C192.36 193.99 192.2 193.464 192.2 192.73C192.2 191.997 192.253 191.164 192.36 190.23C192.466 189.297 192.633 188.31 192.86 187.27C193.1 186.23 193.453 185.364 193.92 184.67C194.4 183.977 194.953 183.63 195.58 183.63L197.68 183.75L198.28 179.99C198.92 179.99 199.266 180.044 199.32 180.15C199.346 180.204 199.36 180.284 199.36 180.39C199.36 180.497 199.34 180.67 199.3 180.91L197.14 194.63C196.5 194.63 196.153 194.577 196.1 194.47C196.073 194.417 196.06 194.35 196.06 194.27C196.06 194.177 196.086 193.944 196.14 193.57L194.36 194.77ZM194.38 186.45C194.006 187.57 193.753 188.684 193.62 189.79C193.486 190.884 193.42 191.71 193.42 192.27C193.42 192.817 193.506 193.197 193.68 193.41C193.853 193.61 194.146 193.71 194.56 193.71L196.34 192.81V192.31L197.44 185.31L197.6 184.81L195.7 184.77C195.193 184.77 194.753 185.33 194.38 186.45ZM205.274 194.43C204.22 194.657 203.334 194.77 202.614 194.77C201.907 194.77 201.387 194.617 201.054 194.31C200.72 194.004 200.554 193.544 200.554 192.93C200.554 192.304 200.647 191.397 200.834 190.21C201.02 189.01 201.134 188.264 201.174 187.97C201.227 187.677 201.3 187.297 201.394 186.83C201.5 186.364 201.594 186.03 201.674 185.83C201.754 185.63 201.86 185.384 201.994 185.09C202.127 184.784 202.267 184.577 202.414 184.47C202.574 184.35 202.76 184.217 202.974 184.07C203.307 183.857 203.84 183.75 204.574 183.75C205.32 183.75 205.827 183.904 206.094 184.21C206.374 184.504 206.514 184.964 206.514 185.59C206.514 186.19 206.4 186.897 206.174 187.71C206.027 188.19 205.767 188.59 205.394 188.91C205.02 189.217 204.56 189.37 204.014 189.37H202.034V189.87C201.834 191.07 201.734 191.904 201.734 192.37C201.734 192.837 201.827 193.17 202.014 193.37C202.214 193.57 202.64 193.67 203.294 193.67C203.947 193.67 204.66 193.584 205.434 193.41L205.274 194.43ZM203.854 188.29C204.147 188.29 204.4 188.197 204.614 188.01C204.827 187.824 204.98 187.59 205.074 187.31C205.247 186.804 205.334 186.377 205.334 186.03C205.334 185.217 205.04 184.81 204.454 184.81C203.907 184.81 203.487 184.964 203.194 185.27C202.994 185.484 202.84 185.837 202.734 186.33C202.64 186.81 202.56 187.297 202.494 187.79L202.334 188.29H203.854ZM209.294 183.89C209.787 183.89 210.094 183.904 210.214 183.93C210.347 183.957 210.414 184.03 210.414 184.15C210.414 184.257 210.387 184.497 210.334 184.87C210.48 184.79 210.7 184.644 210.994 184.43C211.62 183.977 212.054 183.75 212.294 183.75C213.094 183.75 213.64 183.87 213.934 184.11C214.24 184.337 214.394 184.777 214.394 185.43C214.394 186.084 213.96 189.15 213.094 194.63C212.534 194.63 212.214 194.597 212.134 194.53C212.054 194.45 212.014 194.337 212.014 194.19C212.014 194.03 212.207 192.704 212.594 190.21C212.994 187.717 213.194 186.27 213.194 185.87C213.194 185.457 213.12 185.177 212.974 185.03C212.827 184.884 212.634 184.81 212.394 184.81C212.154 184.81 211.914 184.87 211.674 184.99C211.447 185.11 211.167 185.27 210.834 185.47C210.5 185.67 210.254 185.81 210.094 185.89V186.39L208.774 194.63C208.214 194.63 207.894 194.597 207.814 194.53C207.734 194.45 207.694 194.337 207.694 194.19C207.694 194.03 207.707 193.87 207.734 193.71L209.294 183.89ZM217.867 194.73C217.267 194.73 216.847 194.617 216.607 194.39C216.38 194.164 216.267 193.79 216.267 193.27C216.267 192.75 216.393 191.684 216.647 190.07L217.367 185.47L217.527 184.97H216.667L216.847 183.89H217.707L217.787 183.19L217.907 182.31C218.56 182.31 218.913 182.364 218.967 182.47C218.993 182.524 219.007 182.604 219.007 182.71C219.007 182.817 218.987 182.99 218.947 183.23L218.727 183.89H220.567C220.487 184.384 220.393 184.69 220.287 184.81C220.18 184.917 219.893 184.97 219.427 184.97H218.547V185.47L217.827 190.07C217.573 191.71 217.453 192.644 217.467 192.87C217.467 193.43 217.66 193.71 218.047 193.71H219.407L219.267 194.63L217.867 194.73ZM223.775 182.05C223.321 182.05 223.095 181.79 223.095 181.27C223.095 181.004 223.188 180.764 223.375 180.55C223.561 180.337 223.795 180.23 224.075 180.23C224.515 180.23 224.735 180.484 224.735 180.99C224.735 181.27 224.641 181.517 224.455 181.73C224.268 181.944 224.041 182.05 223.775 182.05ZM221.315 194.55C221.288 194.497 221.275 194.417 221.275 194.31C221.275 194.204 221.821 190.73 222.915 183.89C223.381 183.89 223.681 183.91 223.815 183.95C223.948 183.977 224.015 184.05 224.015 184.17C224.015 184.277 223.988 184.49 223.935 184.81L222.375 194.71C221.721 194.71 221.368 194.657 221.315 194.55ZM227.544 183.89V183.29L227.584 183.07C227.784 181.817 227.998 181.077 228.224 180.85C228.584 180.464 228.918 180.244 229.224 180.19C229.904 180.07 230.644 180.01 231.444 180.01L231.304 180.95C230.264 180.95 229.624 181.057 229.384 181.27C229.144 181.47 228.944 182.07 228.784 183.07L228.564 183.89H230.364L230.184 184.97H228.364V185.57L226.924 194.63C226.698 195.91 226.504 196.684 226.344 196.95C226.184 197.217 226.004 197.464 225.804 197.69C225.604 197.93 225.384 198.11 225.144 198.23C224.544 198.497 223.824 198.63 222.984 198.63L223.124 197.75C223.644 197.75 224.064 197.69 224.384 197.57C224.691 197.464 224.938 197.257 225.124 196.95C225.311 196.644 225.444 196.33 225.524 196.01C225.604 195.704 225.691 195.244 225.784 194.63L227.184 185.57L227.384 184.97H226.304L226.484 183.89H227.544ZM237.213 184.15C237.106 184.937 235.913 188.43 233.633 194.63C233.58 194.764 233.486 195.01 233.353 195.37C233.233 195.744 233.146 195.997 233.093 196.13C233.04 196.264 232.94 196.477 232.793 196.77C232.66 197.077 232.533 197.29 232.413 197.41C232.306 197.53 232.153 197.69 231.953 197.89C231.753 198.09 231.546 198.23 231.333 198.31C230.76 198.524 230.166 198.63 229.553 198.63L229.673 197.69C230.406 197.69 230.986 197.404 231.413 196.83C231.853 196.27 232.073 195.597 232.073 194.81C232.073 194.37 231.966 190.73 231.753 183.89C232.326 183.89 232.66 183.93 232.753 184.01C232.86 184.09 232.92 184.357 232.933 184.81L233.013 193.23H233.273L236.213 183.89H236.693C236.96 183.89 237.113 183.917 237.153 183.97C237.193 184.024 237.213 184.084 237.213 184.15ZM246.449 183.75C247.263 183.75 247.829 183.937 248.149 184.31C248.483 184.684 248.649 185.27 248.649 186.07C248.649 186.87 248.589 187.73 248.469 188.65C248.363 189.557 248.189 190.504 247.949 191.49C247.723 192.464 247.369 193.277 246.889 193.93C246.423 194.57 245.883 194.89 245.269 194.89C245.016 194.89 244.343 194.544 243.249 193.85L242.489 198.63C241.849 198.63 241.503 198.577 241.449 198.47C241.423 198.417 241.409 198.337 241.409 198.23C241.409 198.124 241.429 197.95 241.469 197.71L243.669 183.89L246.449 183.75ZM245.129 193.81C245.609 193.81 246.036 193.317 246.409 192.33C246.783 191.344 247.043 190.33 247.189 189.29C247.336 188.237 247.409 187.344 247.409 186.61C247.409 185.864 247.343 185.377 247.209 185.15C247.076 184.924 246.729 184.81 246.169 184.81H244.609V185.31L243.509 192.31L243.329 192.81C244.396 193.477 244.996 193.81 245.129 193.81ZM250.917 194.55C250.891 194.497 250.877 194.417 250.877 194.31C250.877 194.204 251.624 189.43 253.117 179.99C253.771 179.99 254.124 180.044 254.177 180.15C254.204 180.204 254.217 180.29 254.217 180.41C254.217 180.517 253.471 185.284 251.977 194.71C251.324 194.71 250.971 194.657 250.917 194.55ZM257.089 194.77C256.302 194.77 255.789 194.624 255.549 194.33C255.309 194.037 255.189 193.517 255.189 192.77C255.189 192.01 255.242 191.164 255.349 190.23C255.455 189.297 255.622 188.31 255.849 187.27C256.089 186.23 256.442 185.364 256.909 184.67C257.389 183.977 257.942 183.63 258.569 183.63C258.769 183.63 258.995 183.677 259.249 183.77C259.502 183.85 259.802 183.944 260.149 184.05C260.495 184.157 260.749 184.237 260.909 184.29C261.069 184.344 261.229 184.404 261.389 184.47C261.682 184.604 261.829 184.757 261.829 184.93C261.829 184.984 261.329 188.217 260.329 194.63C259.862 194.63 259.555 194.61 259.409 194.57C259.262 194.517 259.202 194.397 259.229 194.21L259.409 192.89L257.089 194.77ZM258.689 184.77C258.182 184.77 257.742 185.33 257.369 186.45C256.995 187.57 256.742 188.684 256.609 189.79C256.475 190.884 256.409 191.717 256.409 192.29C256.409 192.85 256.455 193.21 256.549 193.37C256.642 193.517 256.889 193.59 257.289 193.59L259.649 191.87V191.37L260.549 185.83L260.709 185.33C259.562 184.957 258.889 184.77 258.689 184.77ZM264.772 183.89C265.265 183.89 265.572 183.904 265.692 183.93C265.825 183.957 265.892 184.03 265.892 184.15C265.892 184.257 265.865 184.497 265.812 184.87C265.959 184.79 266.179 184.644 266.472 184.43C267.099 183.977 267.532 183.75 267.772 183.75C268.572 183.75 269.119 183.87 269.412 184.11C269.719 184.337 269.872 184.777 269.872 185.43C269.872 186.084 269.439 189.15 268.572 194.63C268.012 194.63 267.692 194.597 267.612 194.53C267.532 194.45 267.492 194.337 267.492 194.19C267.492 194.03 267.685 192.704 268.072 190.21C268.472 187.717 268.672 186.27 268.672 185.87C268.672 185.457 268.599 185.177 268.452 185.03C268.305 184.884 268.112 184.81 267.872 184.81C267.632 184.81 267.392 184.87 267.152 184.99C266.925 185.11 266.645 185.27 266.312 185.47C265.979 185.67 265.732 185.81 265.572 185.89V186.39L264.252 194.63C263.692 194.63 263.372 194.597 263.292 194.53C263.212 194.45 263.172 194.337 263.172 194.19C263.172 194.03 263.185 193.87 263.212 193.71L264.772 183.89ZM273.345 194.73C272.745 194.73 272.325 194.617 272.085 194.39C271.858 194.164 271.745 193.79 271.745 193.27C271.745 192.75 271.872 191.684 272.125 190.07L272.845 185.47L273.005 184.97H272.145L272.325 183.89H273.185L273.265 183.19L273.385 182.31C274.038 182.31 274.392 182.364 274.445 182.47C274.472 182.524 274.485 182.604 274.485 182.71C274.485 182.817 274.465 182.99 274.425 183.23L274.205 183.89H276.045C275.965 184.384 275.872 184.69 275.765 184.81C275.658 184.917 275.372 184.97 274.905 184.97H274.025V185.47L273.305 190.07C273.052 191.71 272.932 192.644 272.945 192.87C272.945 193.43 273.138 193.71 273.525 193.71H274.885L274.745 194.63L273.345 194.73ZM284.284 180.15C284.31 180.204 284.324 180.29 284.324 180.41C284.324 180.517 284.157 181.63 283.824 183.75H285.304C286.144 183.75 286.724 183.917 287.044 184.25C287.377 184.584 287.544 185.124 287.544 185.87C287.544 186.617 287.49 187.45 287.384 188.37C287.277 189.29 287.11 190.264 286.884 191.29C286.657 192.317 286.317 193.177 285.864 193.87C285.41 194.55 284.884 194.89 284.284 194.89C284.044 194.89 283.37 194.45 282.264 193.57C282.184 194.104 282.084 194.417 281.964 194.51C281.857 194.59 281.517 194.63 280.944 194.63L283.244 179.99C283.884 179.99 284.23 180.044 284.284 180.15ZM284.144 193.81C284.597 193.81 284.997 193.277 285.344 192.21C285.704 191.13 285.957 190.044 286.104 188.95C286.25 187.844 286.324 187.004 286.324 186.43C286.324 185.844 286.237 185.43 286.064 185.19C285.89 184.937 285.604 184.81 285.204 184.81H283.464L283.564 185.19L282.464 192.29L282.304 192.79C283.424 193.47 284.037 193.81 284.144 193.81ZM295.465 184.15C295.358 184.937 294.165 188.43 291.885 194.63C291.831 194.764 291.738 195.01 291.605 195.37C291.485 195.744 291.398 195.997 291.345 196.13C291.291 196.264 291.191 196.477 291.045 196.77C290.911 197.077 290.785 197.29 290.665 197.41C290.558 197.53 290.405 197.69 290.205 197.89C290.005 198.09 289.798 198.23 289.585 198.31C289.011 198.524 288.418 198.63 287.805 198.63L287.925 197.69C288.658 197.69 289.238 197.404 289.665 196.83C290.105 196.27 290.325 195.597 290.325 194.81C290.325 194.37 290.218 190.73 290.005 183.89C290.578 183.89 290.911 183.93 291.005 184.01C291.111 184.09 291.171 184.357 291.185 184.81L291.265 193.23H291.525L294.465 183.89H294.945C295.211 183.89 295.365 183.917 295.405 183.97C295.445 184.024 295.465 184.084 295.465 184.15ZM304.701 183.75C305.514 183.75 306.081 183.937 306.401 184.31C306.734 184.684 306.901 185.27 306.901 186.07C306.901 186.87 306.841 187.73 306.721 188.65C306.614 189.557 306.441 190.504 306.201 191.49C305.974 192.464 305.621 193.277 305.141 193.93C304.674 194.57 304.134 194.89 303.521 194.89C303.268 194.89 302.594 194.544 301.501 193.85L300.741 198.63C300.101 198.63 299.754 198.577 299.701 198.47C299.674 198.417 299.661 198.337 299.661 198.23C299.661 198.124 299.681 197.95 299.721 197.71L301.921 183.89L304.701 183.75ZM303.381 193.81C303.861 193.81 304.288 193.317 304.661 192.33C305.034 191.344 305.294 190.33 305.441 189.29C305.588 188.237 305.661 187.344 305.661 186.61C305.661 185.864 305.594 185.377 305.461 185.15C305.328 184.924 304.981 184.81 304.421 184.81H302.861V185.31L301.761 192.31L301.581 192.81C302.648 193.477 303.248 193.81 303.381 193.81ZM312.509 180.15C312.535 180.204 312.549 180.284 312.549 180.39C312.549 180.497 312.382 181.617 312.049 183.75H313.949C314.682 183.75 315.195 183.91 315.489 184.23C315.782 184.537 315.929 185.017 315.929 185.67C315.929 186.324 315.509 189.31 314.669 194.63C314.015 194.63 313.662 194.577 313.609 194.47C313.582 194.417 313.569 194.344 313.569 194.25C314.315 189.41 314.689 186.75 314.689 186.27C314.689 185.777 314.622 185.41 314.489 185.17C314.355 184.93 314.115 184.81 313.769 184.81H311.829V185.31L310.489 193.71C310.422 194.164 310.329 194.43 310.209 194.51C310.102 194.59 309.755 194.63 309.169 194.63L311.469 179.99C312.109 179.99 312.455 180.044 312.509 180.15ZM327.099 194.73C326.499 194.73 326.079 194.617 325.839 194.39C325.613 194.164 325.499 193.79 325.499 193.27C325.499 192.75 325.626 191.684 325.879 190.07L326.599 185.33L326.759 184.83H323.959C324.039 185.11 324.079 185.597 324.079 186.29C324.079 186.97 324.013 187.797 323.879 188.77C323.759 189.73 323.559 190.684 323.279 191.63C322.999 192.577 322.579 193.337 322.019 193.91C321.473 194.484 320.793 194.77 319.979 194.77C319.179 194.77 318.613 194.61 318.279 194.29C317.959 193.97 317.799 193.364 317.799 192.47C317.799 191.564 317.859 190.637 317.979 189.69C318.099 188.73 318.299 187.784 318.579 186.85C318.859 185.917 319.273 185.17 319.819 184.61C320.379 184.037 321.046 183.75 321.819 183.75H326.939L327.139 182.31C327.793 182.31 328.146 182.364 328.199 182.47C328.226 182.524 328.239 182.604 328.239 182.71C328.239 182.817 328.219 182.99 328.179 183.23L327.959 183.75H329.799C329.719 184.244 329.626 184.55 329.519 184.67C329.413 184.777 329.126 184.83 328.659 184.83H327.779V185.33L327.059 190.07C326.806 191.71 326.686 192.644 326.699 192.87C326.699 193.43 326.893 193.71 327.279 193.71H328.639L328.499 194.63L327.099 194.73ZM319.279 193.39C319.466 193.604 319.786 193.71 320.239 193.71C320.693 193.71 321.099 193.424 321.459 192.85C321.819 192.264 322.093 191.55 322.279 190.71C322.666 189.044 322.859 187.544 322.859 186.21C322.859 185.704 322.766 185.344 322.579 185.13C322.406 184.917 322.093 184.81 321.639 184.81C321.186 184.81 320.779 185.09 320.419 185.65C320.059 186.21 319.786 186.904 319.599 187.73C319.213 189.357 319.019 190.877 319.019 192.29C319.019 192.797 319.106 193.164 319.279 193.39ZM336.887 191.63C336.607 192.577 336.187 193.337 335.627 193.91C335.081 194.484 334.401 194.77 333.587 194.77C332.787 194.77 332.221 194.61 331.887 194.29C331.567 193.97 331.407 193.364 331.407 192.47C331.407 191.564 331.467 190.637 331.587 189.69C331.707 188.73 331.907 187.784 332.187 186.85C332.467 185.917 332.881 185.17 333.427 184.61C333.987 184.037 334.667 183.75 335.467 183.75C336.281 183.75 336.854 183.91 337.187 184.23C337.521 184.537 337.687 185.13 337.687 186.01C337.687 186.877 337.621 187.797 337.487 188.77C337.367 189.73 337.167 190.684 336.887 191.63ZM332.887 193.39C333.074 193.604 333.394 193.71 333.847 193.71C334.301 193.71 334.707 193.424 335.067 192.85C335.427 192.264 335.701 191.55 335.887 190.71C336.274 189.044 336.467 187.544 336.467 186.21C336.467 185.704 336.374 185.344 336.187 185.13C336.014 184.917 335.701 184.81 335.247 184.81C334.794 184.81 334.387 185.09 334.027 185.65C333.667 186.21 333.394 186.904 333.207 187.73C332.821 189.357 332.627 190.877 332.627 192.29C332.627 192.797 332.714 193.164 332.887 193.39Z" fill="black"/>
<line y1="-0.25" x2="518.717" y2="-0.25" transform="matrix(1 -0.000323303 0.000376107 1 0 156.002)" stroke="black" stroke-opacity="0.3" stroke-width="0.5"/>
<defs>
<clipPath id="clip0">
<rect width="156" height="136" fill="white" transform="translate(48)"/>
</clipPath>
</defs>
</svg>
