<svg width="36" height="36" viewBox="0 0 36 36" fill="none" xmlns="http://www.w3.org/2000/svg">
<g clip-path="url(#clip0)">
<path d="M18.5549 28.0566L15.4243 24.9644C15.1191 24.6629 14.6228 24.6629 14.3176 24.9644C14.0124 25.2659 14.0124 25.756 14.3176 26.0575L16.8941 28.6024L14.3161 31.1489C14.0108 31.4504 14.0108 31.9405 14.3161 32.242C14.4695 32.392 14.6698 32.4678 14.8702 32.4678C15.0706 32.4678 15.2709 32.392 15.4243 32.242L18.5549 29.1498C18.8601 28.8483 18.8601 28.3581 18.5549 28.0566Z" fill="#C1C1C1"/>
<path d="M30.8033 17.4626C30.401 17.3049 29.9486 17.5075 29.7921 17.9048C29.6372 18.3022 29.8376 18.7505 30.2414 18.9035C32.9071 19.9194 34.4364 21.2011 34.4364 22.4179C34.4364 24.3443 30.304 26.8135 22.6466 27.599C22.2177 27.6422 21.9062 28.0226 21.9501 28.4478C21.9908 28.8451 22.3304 29.1404 22.7264 29.1404C22.7531 29.1404 22.7812 29.1389 22.8062 29.1373C30.8205 28.3163 36.0001 25.6802 36.0001 22.4194C36 20.4729 34.2031 18.7583 30.8033 17.4626Z" fill="#C1C1C1"/>
<path d="M18.0008 27.8293C8.31637 27.8293 1.56526 24.9768 1.56526 22.4179C1.56526 21.2011 3.09457 19.9193 5.75866 18.902C6.16251 18.749 6.36289 18.3022 6.20793 17.9033C6.05296 17.5059 5.59746 17.308 5.19678 17.4611C1.79697 18.7567 0 20.4714 0 22.418C0 26.9373 9.27432 29.3755 18.0008 29.3755C18.4328 29.3755 18.7834 29.0292 18.7834 28.6024C18.7834 28.1757 18.4328 27.8293 18.0008 27.8293Z" fill="#C1C1C1"/>
<path d="M18.0008 9.27591C14.9798 9.27591 12.5222 11.7033 12.5222 14.6874C12.5222 17.6714 14.9797 20.0988 18.0008 20.0988C21.0218 20.0988 23.4793 17.6713 23.4793 14.6874C23.4793 11.7034 21.0218 9.27591 18.0008 9.27591ZM18.0008 18.5526C15.8422 18.5526 14.0876 16.8179 14.0876 14.6874C14.0876 12.5568 15.8423 10.8221 18.0008 10.8221C20.1593 10.8221 21.914 12.5568 21.914 14.6874C21.914 16.8179 20.1593 18.5526 18.0008 18.5526Z" fill="#C1C1C1"/>
<path d="M27.3925 6.18372H22.3976L21.4819 4.37476C21.0828 3.58312 20.2766 3.09145 19.3814 3.09145H16.6202C15.7248 3.09145 14.9187 3.58312 14.5196 4.37316L13.6039 6.18364H8.60905C6.45057 6.18372 4.69586 7.91846 4.69586 10.049V19.3257C4.69586 21.4562 6.45057 23.191 8.60905 23.191H27.3925C29.551 23.191 31.3057 21.4562 31.3057 19.3257V10.049C31.3058 7.91846 29.551 6.18372 27.3925 6.18372ZM29.7404 19.3257C29.7404 20.6044 28.687 21.6449 27.3925 21.6449H8.60905C7.31454 21.6449 6.26112 20.6044 6.26112 19.3257V10.049C6.26112 8.77033 7.31454 7.72981 8.60905 7.72981H14.0876C14.3834 7.72981 14.6542 7.56435 14.7873 7.30308L15.9205 5.06428C16.0535 4.79989 16.3212 4.63755 16.6202 4.63755H19.3814C19.6803 4.63755 19.948 4.79989 20.081 5.0658L21.2143 7.30301C21.3473 7.56428 21.6181 7.72974 21.914 7.72974H27.3925C28.687 7.72974 29.7404 8.77025 29.7404 10.0489V19.3257V19.3257Z" fill="#C1C1C1"/>
</g>
<defs>
<clipPath id="clip0">
<rect width="36" height="35.5592" fill="white"/>
</clipPath>
</defs>
</svg>
