<svg width="156" height="46" viewBox="0 0 156 46" fill="none" xmlns="http://www.w3.org/2000/svg">
<path d="M28.3547 23.0895V15.4755H28.4807C28.9967 15.4755 29.2967 15.5115 29.3807 15.5835C29.4767 15.6555 29.5247 15.8955 29.5247 16.3035V23.0895C29.5247 24.0135 29.5127 24.6915 29.4887 25.1235C29.4767 25.5435 29.4227 26.0295 29.3267 26.5815C29.2307 27.1335 29.0807 27.5175 28.8767 27.7335C28.3607 28.2855 27.5987 28.5615 26.5907 28.5615C25.5827 28.5615 24.9107 28.3635 24.5747 27.9675C24.4307 27.7995 24.3107 27.6555 24.2147 27.5355C24.1187 27.4035 24.0407 27.1935 23.9807 26.9055C23.9207 26.6175 23.8727 26.3835 23.8367 26.2035C23.8007 26.0115 23.7707 25.7115 23.7467 25.3035C23.7347 24.8955 23.7287 24.5715 23.7287 24.3315V15.4755H23.8547C24.3707 15.4755 24.6707 15.5115 24.7547 15.5835C24.8507 15.6555 24.8987 15.8955 24.8987 16.3035V23.0895C24.8987 23.1735 24.8987 23.4075 24.8987 23.7915C24.8987 24.1635 24.8987 24.4875 24.8987 24.7635C24.9107 25.0275 24.9287 25.3575 24.9527 25.7535C24.9887 26.1375 25.0367 26.4135 25.0967 26.5815C25.1687 26.7375 25.2647 26.9055 25.3847 27.0855C25.6007 27.3855 26.0027 27.5355 26.5907 27.5355C27.4067 27.5355 27.9047 27.2415 28.0847 26.6535C28.2647 26.0535 28.3547 24.8655 28.3547 23.0895ZM31.7706 31.2075V18.7695C32.2866 18.7695 32.5866 18.7875 32.6706 18.8235C32.7666 18.8475 32.8146 18.9495 32.8146 19.1295L34.2546 18.6435C35.0946 18.6435 35.7126 18.8955 36.1086 19.3995C36.4326 19.8075 36.6246 20.6055 36.6846 21.7935C36.7086 22.2495 36.7206 22.8375 36.7206 23.5575C36.7206 24.2775 36.7086 24.8475 36.6846 25.2675C36.6726 25.6755 36.6366 26.0895 36.5766 26.5095C36.5166 26.9175 36.4326 27.2355 36.3246 27.4635C36.2166 27.6795 36.0726 27.8835 35.8926 28.0755C35.5566 28.3995 34.9866 28.5615 34.1826 28.5615L32.8146 27.7335V32.0355C32.2986 32.0355 31.9926 31.9995 31.8966 31.9275C31.8126 31.8555 31.7706 31.6155 31.7706 31.2075ZM34.1466 27.6075C34.7826 27.6075 35.1906 27.3315 35.3706 26.7795C35.5626 26.2155 35.6586 25.1895 35.6586 23.7015C35.6586 22.2135 35.5626 21.1575 35.3706 20.5335C35.1786 19.9095 34.7766 19.5975 34.1646 19.5975L32.7606 20.0475L32.8326 20.4975V26.3475L32.7426 26.7975L34.1466 27.6075ZM38.7885 27.6795V15.2595C39.3165 15.2595 39.6225 15.2955 39.7065 15.3675C39.8025 15.4395 39.8505 15.6795 39.8505 16.0875V28.5075C39.3225 28.5075 39.0105 28.4715 38.9145 28.3995C38.8305 28.3275 38.7885 28.0875 38.7885 27.6795ZM45.4973 28.3635C45.3293 28.4115 45.1373 28.4535 44.9213 28.4895C44.7173 28.5375 44.4653 28.5615 44.1653 28.5615C43.8773 28.5615 43.6133 28.5435 43.3733 28.5075C43.1453 28.4715 42.9413 28.3935 42.7613 28.2735C42.5933 28.1535 42.4493 28.0455 42.3293 27.9495C42.2213 27.8415 42.1253 27.6555 42.0413 27.3915C41.9693 27.1275 41.9093 26.9055 41.8613 26.7255C41.8253 26.5455 41.7953 26.2515 41.7713 25.8435C41.7593 25.4235 41.7473 25.0815 41.7353 24.8175C41.7353 24.5535 41.7353 24.1335 41.7353 23.5575C41.7353 22.9815 41.7353 22.5675 41.7353 22.3155C41.7473 22.0515 41.7593 21.7155 41.7713 21.3075C41.7953 20.8875 41.8253 20.5935 41.8613 20.4255C41.9093 20.2455 41.9693 20.0295 42.0413 19.7775C42.1253 19.5135 42.2213 19.3335 42.3293 19.2375C42.4493 19.1415 42.5993 19.0395 42.7793 18.9315C43.0553 18.7395 43.4273 18.6435 43.8953 18.6435C44.3753 18.6435 44.7173 18.6675 44.9213 18.7155C45.1373 18.7515 45.3293 18.7935 45.4973 18.8415C45.6653 18.8895 45.8093 18.9915 45.9293 19.1475C46.0493 19.2915 46.1513 19.4175 46.2353 19.5255C46.3193 19.6215 46.3853 19.8015 46.4333 20.0655C46.4813 20.3175 46.5173 20.5275 46.5413 20.6955C46.5773 20.8515 46.6013 21.1215 46.6133 21.5055C46.6373 21.8895 46.6493 22.2015 46.6493 22.4415V23.5575C46.6493 23.5575 46.6493 23.5815 46.6493 23.6295C46.6493 23.6295 46.6493 23.9955 46.6493 24.7275C46.6493 25.5435 46.6253 26.0835 46.5773 26.3475C46.5293 26.5995 46.4813 26.8575 46.4333 27.1215C46.3853 27.3855 46.3193 27.5715 46.2353 27.6795C46.1513 27.7755 46.0493 27.9015 45.9293 28.0575C45.8093 28.2015 45.6653 28.3035 45.4973 28.3635ZM45.5873 23.9715V23.3595C45.5873 21.7875 45.5213 20.7975 45.3893 20.3895C45.1973 19.8735 44.8013 19.6095 44.2013 19.5975C43.7093 19.5975 43.3793 19.7235 43.2113 19.9755C43.1153 20.1435 43.0373 20.2995 42.9773 20.4435C42.9173 20.5875 42.8753 20.8395 42.8513 21.1995C42.8153 21.7275 42.7973 22.2375 42.7973 22.7295C42.7973 23.2215 42.7973 23.7195 42.7973 24.2235C42.7973 24.7155 42.8033 25.1415 42.8153 25.5015C42.8273 25.8615 42.8753 26.2455 42.9593 26.6535C43.0553 27.0495 43.1993 27.3075 43.3913 27.4275C43.5833 27.5475 43.8233 27.6075 44.1113 27.6075C44.3993 27.6075 44.6213 27.5835 44.7773 27.5355C44.9333 27.4755 45.0593 27.3735 45.1553 27.2295C45.2633 27.0735 45.3413 26.9235 45.3893 26.7795C45.4493 26.6235 45.4913 26.3835 45.5153 26.0595C45.5633 25.5915 45.5873 24.8955 45.5873 23.9715ZM51.7077 21.6495V20.6415C51.7077 20.1615 51.6477 19.8615 51.5277 19.7415C51.4197 19.6095 51.1497 19.5435 50.7177 19.5435L49.8177 19.7235C49.6977 19.7475 49.6077 19.7595 49.5477 19.7595C49.1277 19.7595 48.9177 19.4895 48.9177 18.9495L50.7177 18.6435C51.6177 18.6435 52.1637 18.7635 52.3557 19.0035C52.4517 19.1235 52.5237 19.2255 52.5717 19.3095C52.6317 19.3935 52.6677 19.5435 52.6797 19.7595C52.7157 20.1075 52.7337 20.5095 52.7337 20.9655V28.4355C52.1937 28.4355 51.8757 28.3995 51.7797 28.3275C51.6837 28.2435 51.6357 27.9795 51.6357 27.5355C51.5157 27.6075 51.3477 27.7395 51.1317 27.9315C50.6757 28.3515 50.2917 28.5615 49.9797 28.5615C49.2477 28.5615 48.8097 28.3335 48.6657 27.8775C48.5337 27.4095 48.4677 26.1255 48.4677 24.0255C48.4677 23.2215 48.8157 22.6875 49.5117 22.4235C50.0877 22.2075 50.8197 22.0995 51.7077 22.0995H51.7797L51.7077 21.6495ZM51.6357 23.1075C50.9397 23.1075 50.4117 23.1615 50.0517 23.2695C49.7037 23.3655 49.5297 23.5695 49.5297 23.8815C49.5297 26.0775 49.5777 27.2775 49.6737 27.4815C49.7217 27.5655 49.8297 27.6075 49.9977 27.6075C50.1657 27.6075 50.3457 27.5595 50.5377 27.4635C50.7417 27.3675 50.9517 27.2415 51.1677 27.0855C51.3957 26.9175 51.5757 26.8035 51.7077 26.7435L51.6357 26.2935V23.5575L51.7077 23.1075H51.6357ZM54.638 25.5555C54.626 25.1595 54.62 24.6195 54.62 23.9355C54.62 23.2515 54.62 22.7775 54.62 22.5135C54.632 22.2495 54.644 21.9375 54.656 21.5775C54.668 21.2055 54.686 20.9295 54.71 20.7495C54.746 20.5575 54.788 20.3415 54.836 20.1015C54.896 19.8495 54.968 19.6635 55.052 19.5435C55.136 19.4235 55.238 19.2915 55.358 19.1475C55.478 19.0035 55.616 18.9075 55.772 18.8595C56.192 18.7155 56.624 18.6435 57.068 18.6435L58.4 19.1475V15.2595C58.928 15.2595 59.234 15.2955 59.318 15.3675C59.402 15.4395 59.444 15.6795 59.444 16.0875V28.4355C58.916 28.4355 58.61 28.3995 58.526 28.3275C58.442 28.2435 58.4 27.9615 58.4 27.4815L56.978 28.5615C56.174 28.5615 55.556 28.3395 55.124 27.8955C54.836 27.5955 54.674 26.8155 54.638 25.5555ZM55.736 21.2355C55.712 21.6675 55.694 22.0155 55.682 22.2795C55.682 22.5315 55.682 23.2335 55.682 24.3855C55.682 25.5255 55.736 26.3055 55.844 26.7255C56.096 27.2775 56.48 27.5715 56.996 27.6075L58.472 26.7975L58.4 26.3475V20.5155L58.472 20.0655L56.996 19.5975C56.552 19.5975 56.246 19.7475 56.078 20.0475C55.886 20.4075 55.772 20.8035 55.736 21.2355ZM65.3905 28.4355H65.3005V15.4395L67.7125 15.2595C69.1165 15.2595 70.0225 15.4995 70.4305 15.9795C70.5865 16.1715 70.7005 16.3395 70.7725 16.4835C70.8565 16.6275 70.9225 16.8495 70.9705 17.1495C71.0185 17.5335 71.0425 18.0375 71.0425 18.6615C71.0425 19.2735 71.0305 19.7115 71.0065 19.9755C70.9945 20.2395 70.9285 20.5515 70.8085 20.9115C70.7005 21.2595 70.5325 21.5115 70.3045 21.6675C69.7405 22.0755 68.8765 22.2795 67.7125 22.2795H66.3625L66.4345 22.7295V27.6075C66.4345 28.0155 66.3865 28.2555 66.2905 28.3275C66.1945 28.3995 65.8945 28.4355 65.3905 28.4355ZM67.7125 21.2535C68.4685 21.2535 68.9485 21.1875 69.1525 21.0555C69.3685 20.9115 69.5185 20.7915 69.6025 20.6955C69.6865 20.5995 69.7465 20.4315 69.7825 20.1915C69.8305 19.9515 69.8545 19.7475 69.8545 19.5795C69.8665 19.4115 69.8725 19.1415 69.8725 18.7695C69.8725 18.3975 69.8665 18.1275 69.8545 17.9595C69.8545 17.7915 69.8305 17.5875 69.7825 17.3475C69.7465 17.1075 69.6865 16.9395 69.6025 16.8435C69.5185 16.7475 69.3985 16.6455 69.2425 16.5375C68.9785 16.3695 68.4685 16.2855 67.7125 16.2855H66.3625L66.4345 16.7355V20.8035L66.3625 21.2535H67.7125ZM77.2702 27.6075V23.6295C77.2702 22.0935 77.2102 21.0375 77.0902 20.4615C76.9702 19.8855 76.6522 19.5975 76.1362 19.5975L74.3722 20.2275L74.4442 20.6775V27.6075C74.4442 28.0155 74.3962 28.2555 74.3002 28.3275C74.2162 28.3995 73.9102 28.4355 73.3822 28.4355V15.2595C73.8982 15.2595 74.1982 15.2955 74.2822 15.3675C74.3782 15.4395 74.4262 15.6795 74.4262 16.0875V19.3095L76.1362 18.6435C77.1562 18.6435 77.7742 18.9735 77.9902 19.6335C78.2182 20.2935 78.3322 21.6315 78.3322 23.6475V28.4355C77.8042 28.4355 77.4922 28.3995 77.3962 28.3275C77.3122 28.2555 77.2702 28.0155 77.2702 27.6075ZM86.9818 24.3315V20.1915L87.0538 19.6155H84.5878C84.8038 20.0955 84.9178 20.8275 84.9298 21.8115C84.9418 22.1835 84.9478 22.5675 84.9478 22.9635V23.6295C84.9478 25.3095 84.9178 26.2935 84.8578 26.5815C84.7978 26.8695 84.7258 27.1455 84.6418 27.4095C84.5698 27.6615 84.4798 27.8415 84.3718 27.9495C84.2638 28.0455 84.1258 28.1535 83.9578 28.2735C83.6938 28.4655 83.2378 28.5615 82.5898 28.5615C81.7498 28.5615 81.1918 28.3875 80.9158 28.0395C80.7958 27.8955 80.6938 27.7695 80.6098 27.6615C80.5378 27.5535 80.4718 27.3675 80.4118 27.1035C80.3638 26.8395 80.3218 26.6235 80.2858 26.4555C80.2618 26.2875 80.2438 26.0115 80.2318 25.6275C80.2198 25.2315 80.2138 24.9195 80.2138 24.6915V22.4235C80.2138 21.5595 80.2318 21.0135 80.2678 20.7855C80.3158 20.5575 80.3638 20.3115 80.4118 20.0475C80.4718 19.7835 80.5378 19.6035 80.6098 19.5075C80.6938 19.3995 80.7958 19.2735 80.9158 19.1295C81.0358 18.9855 81.1738 18.8895 81.3298 18.8415C81.7858 18.7095 82.2058 18.6435 82.5898 18.6435H87.0538L86.9818 18.1395V17.3475C87.5098 17.3475 87.8158 17.3835 87.8998 17.4555C87.9958 17.5275 88.0438 17.7675 88.0438 18.1755L87.9718 18.6435H89.6278C89.6278 19.0875 89.5858 19.3635 89.5018 19.4715C89.4298 19.5675 89.1838 19.6155 88.7638 19.6155H87.9718L88.0438 20.1915V24.3315C88.0438 25.6995 88.0798 26.5875 88.1518 26.9955C88.2238 27.4035 88.4278 27.6075 88.7638 27.6075H89.9878V28.4355L88.7458 28.5255C87.9178 28.5255 87.4138 28.2735 87.2338 27.7695C87.0658 27.2535 86.9818 26.1075 86.9818 24.3315ZM83.8858 23.9715V22.7475C83.8858 21.4395 83.8258 20.6175 83.7058 20.2815C83.5378 19.8255 83.1658 19.5975 82.5898 19.5975C82.2658 19.5975 82.0138 19.6515 81.8338 19.7595C81.6538 19.8555 81.5218 20.0775 81.4378 20.4255C81.3538 20.7615 81.3058 21.0855 81.2938 21.3975C81.2818 21.6975 81.2758 22.0755 81.2758 22.5315V23.3595C81.2758 25.1115 81.3058 26.1555 81.3658 26.4915C81.4738 27.1275 81.7618 27.4875 82.2298 27.5715C82.3378 27.5955 82.4758 27.6075 82.6438 27.6075C82.8238 27.6075 82.9858 27.5895 83.1298 27.5535C83.2858 27.5055 83.4118 27.4095 83.5078 27.2655C83.6038 27.1095 83.6758 26.9715 83.7238 26.8515C83.7718 26.7195 83.8078 26.4915 83.8318 26.1675C83.8678 25.6635 83.8858 25.1835 83.8858 24.7275V23.9715ZM94.7512 28.3635C94.5832 28.4115 94.3912 28.4535 94.1752 28.4895C93.9712 28.5375 93.7192 28.5615 93.4192 28.5615C93.1312 28.5615 92.8672 28.5435 92.6272 28.5075C92.3992 28.4715 92.1952 28.3935 92.0152 28.2735C91.8472 28.1535 91.7032 28.0455 91.5832 27.9495C91.4752 27.8415 91.3792 27.6555 91.2952 27.3915C91.2232 27.1275 91.1632 26.9055 91.1152 26.7255C91.0792 26.5455 91.0492 26.2515 91.0252 25.8435C91.0132 25.4235 91.0012 25.0815 90.9892 24.8175C90.9892 24.5535 90.9892 24.1335 90.9892 23.5575C90.9892 22.9815 90.9892 22.5675 90.9892 22.3155C91.0012 22.0515 91.0132 21.7155 91.0252 21.3075C91.0492 20.8875 91.0792 20.5935 91.1152 20.4255C91.1632 20.2455 91.2232 20.0295 91.2952 19.7775C91.3792 19.5135 91.4752 19.3335 91.5832 19.2375C91.7032 19.1415 91.8532 19.0395 92.0332 18.9315C92.3092 18.7395 92.6812 18.6435 93.1492 18.6435C93.6292 18.6435 93.9712 18.6675 94.1752 18.7155C94.3912 18.7515 94.5832 18.7935 94.7512 18.8415C94.9192 18.8895 95.0632 18.9915 95.1832 19.1475C95.3032 19.2915 95.4052 19.4175 95.4892 19.5255C95.5732 19.6215 95.6392 19.8015 95.6872 20.0655C95.7352 20.3175 95.7712 20.5275 95.7952 20.6955C95.8312 20.8515 95.8552 21.1215 95.8672 21.5055C95.8912 21.8895 95.9032 22.2015 95.9032 22.4415V23.5575C95.9032 23.5575 95.9032 23.5815 95.9032 23.6295C95.9032 23.6295 95.9032 23.9955 95.9032 24.7275C95.9032 25.5435 95.8792 26.0835 95.8312 26.3475C95.7832 26.5995 95.7352 26.8575 95.6872 27.1215C95.6392 27.3855 95.5732 27.5715 95.4892 27.6795C95.4052 27.7755 95.3032 27.9015 95.1832 28.0575C95.0632 28.2015 94.9192 28.3035 94.7512 28.3635ZM94.8412 23.9715V23.3595C94.8412 21.7875 94.7752 20.7975 94.6432 20.3895C94.4512 19.8735 94.0552 19.6095 93.4552 19.5975C92.9632 19.5975 92.6332 19.7235 92.4652 19.9755C92.3692 20.1435 92.2912 20.2995 92.2312 20.4435C92.1712 20.5875 92.1292 20.8395 92.1052 21.1995C92.0692 21.7275 92.0512 22.2375 92.0512 22.7295C92.0512 23.2215 92.0512 23.7195 92.0512 24.2235C92.0512 24.7155 92.0572 25.1415 92.0692 25.5015C92.0812 25.8615 92.1292 26.2455 92.2132 26.6535C92.3092 27.0495 92.4532 27.3075 92.6452 27.4275C92.8372 27.5475 93.0772 27.6075 93.3652 27.6075C93.6532 27.6075 93.8752 27.5835 94.0312 27.5355C94.1872 27.4755 94.3132 27.3735 94.4092 27.2295C94.5172 27.0735 94.5952 26.9235 94.6432 26.7795C94.7032 26.6235 94.7452 26.3835 94.7692 26.0595C94.8172 25.5915 94.8412 24.8955 94.8412 23.9715Z" fill="black"/>
<path d="M134.437 33.9194H113.425C112.085 33.9194 111 32.6367 111 31.0544V13.8649C111 12.2826 112.085 11 113.425 11H134.437C135.777 11 136.862 12.2826 136.862 13.8649V31.0544C136.862 32.6367 135.777 33.9194 134.437 33.9194ZM116.657 14.3424C115.095 14.3424 113.829 15.8388 113.829 17.6848C113.829 19.5308 115.095 21.0272 116.657 21.0272C118.22 21.0272 119.486 19.5308 119.486 17.6848C119.486 15.8388 118.22 14.3424 116.657 14.3424ZM114.233 30.0995H133.629V23.4147L129.209 18.1912C128.972 17.9116 128.588 17.9116 128.352 18.1912L121.506 26.2796L118.702 22.9661C118.466 22.6864 118.082 22.6864 117.845 22.9661L114.233 27.2345V30.0995Z" fill="black" fill-opacity="0.1"/>
<rect x="0.5" y="0.5" width="155" height="45" rx="9.5" stroke="black" stroke-opacity="0.24"/>
</svg>
