<svg width="23" height="20" viewBox="0 0 23 20" fill="none" xmlns="http://www.w3.org/2000/svg">
<path d="M22.3262 10.6641L14.7793 17.2266C14.1055 17.8125 12.9375 17.4024 12.9375 16.5625V12.8125H6.82812C6.23066 12.8125 5.75 12.3945 5.75 11.875V8.12501C5.75 7.60548 6.23066 7.18751 6.82812 7.18751H12.9375V3.43751C12.9375 2.60157 14.101 2.18751 14.7793 2.77344L22.3262 9.33594C22.7439 9.70313 22.7439 10.2969 22.3262 10.6641ZM8.625 17.0313V15.4688C8.625 15.2109 8.38242 15 8.08594 15H4.3125C3.51738 15 2.875 14.4414 2.875 13.75V6.25001C2.875 5.5586 3.51738 5.00001 4.3125 5.00001H8.08594C8.38242 5.00001 8.625 4.78907 8.625 4.53126V2.96876C8.625 2.71094 8.38242 2.50001 8.08594 2.50001H4.3125C1.93164 2.50001 0 4.17969 0 6.25001V13.75C0 15.8203 1.93164 17.5 4.3125 17.5H8.08594C8.38242 17.5 8.625 17.2891 8.625 17.0313Z" fill="white" fill-opacity="0.89"/>
</svg>
