<svg width="230" height="138" viewBox="0 0 230 138" fill="none" xmlns="http://www.w3.org/2000/svg">
<g clip-path="url(#clip0)">
<path d="M42.4999 0C42.4999 0 36.0258 22.6571 36.3295 34.1501C36.7402 49.6872 39.3513 50.5421 39.3513 50.5421H45.6484C45.6484 50.5421 48.2597 49.6873 48.6702 34.1501C48.974 22.6571 42.4999 0 42.4999 0Z" fill="#66AD66"/>
<path d="M42.5 0L42.1454 50.5421H45.6486C45.6486 50.5421 48.2599 49.6873 48.6704 34.1501C48.9741 22.6571 42.5 0 42.5 0Z" fill="#5E9E5E"/>
<path d="M55.8167 50.5421C49.4484 31.3987 58.7997 4.99101 58.7997 4.99101C58.7997 4.99101 51.002 11.7235 44.6691 24.9568C40.6076 33.4442 41.6118 44.0357 42.8544 50.5421H55.8167Z" fill="#9CD38C"/>
<path d="M55.8168 50.5421C49.4485 31.3987 58.7998 4.99101 58.7998 4.99101C58.7998 4.99101 41.6383 28.2664 48.3147 50.5421H55.8168Z" fill="#80C56E"/>
<path d="M29.1832 50.5421C35.5516 31.3987 26.2003 4.99101 26.2003 4.99101C26.2003 4.99101 33.9982 11.7235 40.3309 24.9568C44.3924 33.4442 43.3882 44.0357 42.1456 50.5421H29.1832Z" fill="#9CD38C"/>
<path d="M37.741 50.5421C41.761 33.7137 26.2001 4.99101 26.2001 4.99101C26.2001 4.99101 33.998 11.7235 40.3306 24.9568C44.3922 33.4442 43.388 44.0357 42.1454 50.5421H37.741Z" fill="#80C56E"/>
<path d="M58.602 50.5421C59.3914 39.7564 71.7504 31.288 71.7504 31.288C71.7504 31.288 61.6271 32.5119 54.527 38.3345C49.5805 42.3908 47.7439 48.6911 47.2943 50.542H58.602V50.5421Z" fill="#9CD38C"/>
<path d="M58.602 50.5421C59.3914 39.7564 71.7504 31.288 71.7504 31.288C71.7504 31.288 57.7213 35.4728 52.2062 50.5421H58.602Z" fill="#80C56E"/>
<path d="M26.4332 50.5421C25.6438 39.7564 13.2848 31.288 13.2848 31.288C13.2848 31.288 23.4081 32.5119 30.5082 38.3345C35.4547 42.3908 37.2913 48.6911 37.7409 50.542H26.4332V50.5421Z" fill="#80C56E"/>
<path d="M26.4332 50.5421C25.6438 39.7564 13.2848 31.288 13.2848 31.288C13.2848 31.288 28.0354 35.7899 32.7938 50.5421H26.4332Z" fill="#9CD38C"/>
<path d="M54.2488 24.2433C44.2636 31.4441 40.1116 47.4208 39.3814 50.5421H52.2061C53.8653 29.1956 74.5477 14.5715 74.5477 14.5715C74.5477 14.5715 65.3425 16.2431 54.2488 24.2433Z" fill="#66AD66"/>
<path d="M45.5216 50.5421H52.2064C53.8654 29.1956 74.5478 14.5715 74.5478 14.5715C74.5478 14.5715 51.6491 24.5517 45.5216 50.5421Z" fill="#5E9E5E"/>
<path d="M30.7513 24.2433C40.7365 31.4441 44.8885 47.4208 45.6187 50.5421H32.794C31.1348 29.1956 10.4524 14.5715 10.4524 14.5715C10.4524 14.5715 19.6577 16.2431 30.7513 24.2433Z" fill="#66AD66"/>
<path d="M30.7513 24.2433C40.7365 31.4441 44.8885 47.4208 45.6187 50.5421H39.3514C37.0792 24.5517 10.4524 14.5715 10.4524 14.5715C10.4524 14.5715 19.6577 16.2431 30.7513 24.2433Z" fill="#5E9E5E"/>
<path d="M51.865 86.8451H31.3986C30.1451 86.8451 29.0553 85.9755 28.7629 84.7425L21 52H62.2637L54.5008 84.7425C54.2083 85.9755 53.1184 86.8451 51.865 86.8451Z" fill="#FEC37D"/>
<path d="M54.9133 51.1547L47.1504 83.8972C46.8581 85.1304 45.7682 85.9998 44.5148 85.9998H52.7156C53.969 85.9998 55.0589 85.1303 55.3513 83.8972L63.1141 51.1547H54.9133Z" fill="#F9AE5D"/>
<path d="M65.8901 55.4618H19.0747C18.48 55.4618 17.9979 54.974 17.9979 54.3723V50.2109C17.9979 49.6092 18.48 49.1215 19.0747 49.1215H65.8901C66.4848 49.1215 66.9669 49.6092 66.9669 50.2109V54.3723C66.9667 54.974 66.4848 55.4618 65.8901 55.4618Z" fill="#F2A559"/>
<path d="M65.89 49.1216H58.1447V55.4618H65.89C66.4847 55.4618 66.9668 54.974 66.9668 54.3723V50.2109C66.9666 49.6094 66.4847 49.1216 65.89 49.1216Z" fill="#EA8F3D"/>
<path d="M59.85 64.9233L60.4653 62.3277H24.4996L25.1149 64.9233H59.85Z" fill="#F2A559"/>
<path d="M51.6489 64.9233H59.85L59.9816 64.3676L60.4652 62.3277H52.2644L51.6489 64.9233Z" fill="#EA8F3D"/>
</g>
<path d="M78.0666 82H77.8266V47.344L84.2586 46.864C88.0026 46.864 90.4186 47.504 91.5066 48.784C91.9226 49.296 92.2266 49.744 92.4186 50.128C92.6426 50.512 92.8186 51.104 92.9466 51.904C93.0746 52.928 93.1386 54.272 93.1386 55.936C93.1386 57.568 93.1066 58.736 93.0426 59.44C93.0106 60.144 92.8346 60.976 92.5146 61.936C92.2266 62.864 91.7786 63.536 91.1706 63.952C89.6666 65.04 87.3626 65.584 84.2586 65.584H80.6586L80.8506 66.784V79.792C80.8506 80.88 80.7226 81.52 80.4666 81.712C80.2106 81.904 79.4106 82 78.0666 82ZM84.2586 62.848C86.2746 62.848 87.5546 62.672 88.0986 62.32C88.6746 61.936 89.0746 61.616 89.2986 61.36C89.5226 61.104 89.6826 60.656 89.7786 60.016C89.9066 59.376 89.9706 58.832 89.9706 58.384C90.0026 57.936 90.0186 57.216 90.0186 56.224C90.0186 55.232 90.0026 54.512 89.9706 54.064C89.9706 53.616 89.9066 53.072 89.7786 52.432C89.6826 51.792 89.5226 51.344 89.2986 51.088C89.0746 50.832 88.7546 50.56 88.3386 50.272C87.6346 49.824 86.2746 49.6 84.2586 49.6H80.6586L80.8506 50.8V61.648L80.6586 62.848H84.2586ZM99.3778 79.984V46.864C100.786 46.864 101.602 46.96 101.826 47.152C102.082 47.344 102.21 47.984 102.21 49.072V82.192C100.802 82.192 99.9698 82.096 99.7138 81.904C99.4898 81.712 99.3778 81.072 99.3778 79.984ZM115.876 63.904V61.216C115.876 59.936 115.716 59.136 115.396 58.816C115.108 58.464 114.388 58.288 113.236 58.288L110.836 58.768C110.516 58.832 110.276 58.864 110.116 58.864C108.996 58.864 108.436 58.144 108.436 56.704L113.236 55.888C115.636 55.888 117.092 56.208 117.604 56.848C117.86 57.168 118.052 57.44 118.18 57.664C118.34 57.888 118.436 58.288 118.468 58.864C118.564 59.792 118.612 60.864 118.612 62.08V82C117.172 82 116.324 81.904 116.068 81.712C115.812 81.488 115.684 80.784 115.684 79.6C115.364 79.792 114.916 80.144 114.34 80.656C113.124 81.776 112.1 82.336 111.268 82.336C109.316 82.336 108.148 81.728 107.764 80.512C107.412 79.264 107.236 75.84 107.236 70.24C107.236 68.096 108.164 66.672 110.02 65.968C111.556 65.392 113.508 65.104 115.876 65.104H116.068L115.876 63.904ZM115.684 67.792C113.828 67.792 112.42 67.936 111.46 68.224C110.532 68.48 110.068 69.024 110.068 69.856C110.068 75.712 110.196 78.912 110.452 79.456C110.58 79.68 110.868 79.792 111.316 79.792C111.764 79.792 112.244 79.664 112.756 79.408C113.3 79.152 113.86 78.816 114.436 78.4C115.044 77.952 115.524 77.648 115.876 77.488L115.684 76.288V68.992L115.876 67.792H115.684ZM134.49 79.792V69.184C134.49 64.288 134.346 61.28 134.058 60.16C133.77 59.008 132.906 58.432 131.466 58.432L126.762 60.112L126.954 61.312V82C125.546 82 124.714 81.904 124.458 81.712C124.234 81.52 124.122 80.88 124.122 79.792V56.224C125.53 56.224 126.346 56.288 126.57 56.416C126.826 56.512 126.954 56.928 126.954 57.664L131.274 55.888C134.154 55.888 135.882 56.624 136.458 58.096C137.034 59.568 137.322 63.28 137.322 69.232V82C135.914 82 135.082 81.904 134.826 81.712C134.602 81.52 134.49 80.88 134.49 79.792ZM142.681 71.056V60.016L142.873 58.816H140.809V56.224H142.873L142.681 54.544V52.432C144.089 52.432 144.905 52.528 145.129 52.72C145.385 52.912 145.513 53.552 145.513 54.64L145.321 56.224H149.737C149.737 57.408 149.625 58.144 149.401 58.432C149.209 58.688 148.553 58.816 147.433 58.816H145.321L145.513 60.016V71.056C145.513 74.704 145.609 77.072 145.801 78.16C145.993 79.248 146.537 79.792 147.433 79.792H150.697V82L147.385 82.24C145.177 82.24 143.833 81.568 143.353 80.224C142.905 78.848 142.681 75.792 142.681 71.056ZM157.112 51.184C156.696 51.6 156.184 51.808 155.576 51.808C154.968 51.808 154.44 51.6 153.992 51.184C153.576 50.736 153.368 50.208 153.368 49.6C153.368 48.96 153.576 48.448 153.992 48.064C154.44 47.648 154.968 47.44 155.576 47.44C156.184 47.44 156.696 47.648 157.112 48.064C157.56 48.48 157.784 48.992 157.784 49.6C157.784 50.208 157.56 50.736 157.112 51.184ZM154.184 79.984V56.224C155.592 56.224 156.408 56.32 156.632 56.512C156.888 56.672 157.016 57.312 157.016 58.432V82.192C155.608 82.192 154.776 82.096 154.52 81.904C154.296 81.712 154.184 81.072 154.184 79.984ZM161.294 58.816V56.224H163.886L163.646 54.784V54.256C163.646 51.568 163.758 50.016 163.982 49.6C164.206 49.184 164.446 48.8 164.702 48.448C164.958 48.096 165.278 47.856 165.662 47.728C166.046 47.568 166.526 47.408 167.102 47.248C168.062 47.024 169.598 46.912 171.71 46.912V49.168C169.214 49.168 167.71 49.424 167.198 49.936C166.718 50.416 166.478 51.856 166.478 54.256V54.784L166.238 56.224H170.558V58.816H166.19L166.43 60.256V88.864C166.398 90.24 166.27 91.04 166.046 91.264C165.822 91.488 165.006 91.6 163.598 91.6L163.646 60.256L163.886 58.816H161.294ZM172.787 91.6V89.344C174.291 89.344 175.459 88.816 176.291 87.76C177.155 86.736 177.587 85.44 177.587 83.872C177.587 83.232 175.891 74.016 172.499 56.224C173.875 56.224 174.691 56.32 174.947 56.512C175.235 56.672 175.491 57.312 175.715 58.432L179.075 78.64H179.699L183.203 56.224C184.739 56.224 185.555 56.368 185.651 56.656C185.715 56.752 185.747 56.928 185.747 57.184C185.747 58.816 184.195 67.088 181.091 82C181.027 82.288 180.915 82.88 180.755 83.776C180.595 84.672 180.467 85.28 180.371 85.6C180.307 85.92 180.163 86.432 179.939 87.136C179.715 87.872 179.491 88.384 179.267 88.672C179.043 88.96 178.723 89.344 178.307 89.824C177.923 90.304 177.491 90.64 177.011 90.832C175.667 91.344 174.259 91.6 172.787 91.6Z" fill="black"/>
<path d="M61.328 122C60.88 122 60.6373 121.963 60.6 121.888C60.5813 121.851 60.572 121.795 60.572 121.72C60.572 121.645 61.0853 118.379 62.112 111.92H62.182C62.6206 111.92 62.8586 111.957 62.896 112.032C62.9146 112.069 62.924 112.125 62.924 112.2C62.924 112.275 62.4153 115.541 61.398 122H61.328ZM65.3724 122.098C64.8124 122.098 64.4204 121.991 64.1964 121.776C63.9724 121.552 63.8604 121.183 63.8604 120.67C63.8604 120.157 63.8978 119.573 63.9724 118.92C64.0471 118.267 64.1638 117.576 64.3224 116.848C64.4904 116.12 64.7378 115.513 65.0644 115.028C65.4004 114.543 65.7878 114.3 66.2264 114.3L67.6964 114.384L68.1164 111.752C68.5644 111.752 68.8071 111.789 68.8444 111.864C68.8631 111.901 68.8724 111.957 68.8724 112.032C68.8724 112.107 68.8584 112.228 68.8304 112.396L67.3184 122C66.8704 122 66.6278 121.963 66.5904 121.888C66.5718 121.851 66.5624 121.804 66.5624 121.748C66.5624 121.683 66.5811 121.519 66.6184 121.258L65.3724 122.098ZM65.3864 116.274C65.1251 117.058 64.9478 117.837 64.8544 118.612C64.7611 119.377 64.7144 119.956 64.7144 120.348C64.7144 120.731 64.7751 120.997 64.8964 121.146C65.0178 121.286 65.2231 121.356 65.5124 121.356L66.7584 120.726V120.376L67.5284 115.476L67.6404 115.126L66.3104 115.098C65.9558 115.098 65.6478 115.49 65.3864 116.274ZM73.0122 121.86C72.2748 122.019 71.6542 122.098 71.1502 122.098C70.6555 122.098 70.2915 121.991 70.0582 121.776C69.8248 121.561 69.7082 121.239 69.7082 120.81C69.7082 120.371 69.7735 119.737 69.9042 118.906C70.0348 118.066 70.1142 117.543 70.1422 117.338C70.1795 117.133 70.2308 116.867 70.2962 116.54C70.3708 116.213 70.4362 115.98 70.4922 115.84C70.5482 115.7 70.6228 115.527 70.7162 115.322C70.8095 115.107 70.9075 114.963 71.0102 114.888C71.1222 114.804 71.2528 114.711 71.4022 114.608C71.6355 114.459 72.0088 114.384 72.5222 114.384C73.0448 114.384 73.3995 114.491 73.5862 114.706C73.7822 114.911 73.8802 115.233 73.8802 115.672C73.8802 116.092 73.8008 116.587 73.6422 117.156C73.5395 117.492 73.3575 117.772 73.0962 117.996C72.8348 118.211 72.5128 118.318 72.1302 118.318H70.7442V118.668C70.6042 119.508 70.5342 120.091 70.5342 120.418C70.5342 120.745 70.5995 120.978 70.7302 121.118C70.8702 121.258 71.1688 121.328 71.6262 121.328C72.0835 121.328 72.5828 121.267 73.1242 121.146L73.0122 121.86ZM72.0182 117.562C72.2235 117.562 72.4008 117.497 72.5502 117.366C72.6995 117.235 72.8068 117.072 72.8722 116.876C72.9935 116.521 73.0542 116.223 73.0542 115.98C73.0542 115.411 72.8488 115.126 72.4382 115.126C72.0555 115.126 71.7615 115.233 71.5562 115.448C71.4162 115.597 71.3088 115.845 71.2342 116.19C71.1688 116.526 71.1128 116.867 71.0662 117.212L70.9542 117.562H72.0182ZM75.8263 114.482C76.1716 114.482 76.3863 114.491 76.4703 114.51C76.5636 114.529 76.6103 114.58 76.6103 114.664C76.6103 114.739 76.5916 114.907 76.5543 115.168C76.657 115.112 76.811 115.009 77.0163 114.86C77.455 114.543 77.7583 114.384 77.9263 114.384C78.4863 114.384 78.869 114.468 79.0743 114.636C79.289 114.795 79.3963 115.103 79.3963 115.56C79.3963 116.017 79.093 118.164 78.4863 122C78.0943 122 77.8703 121.977 77.8143 121.93C77.7583 121.874 77.7303 121.795 77.7303 121.692C77.7303 121.58 77.8656 120.651 78.1363 118.906C78.4163 117.161 78.5563 116.148 78.5563 115.868C78.5563 115.579 78.505 115.383 78.4023 115.28C78.2996 115.177 78.1643 115.126 77.9963 115.126C77.8283 115.126 77.6603 115.168 77.4923 115.252C77.3336 115.336 77.1376 115.448 76.9043 115.588C76.671 115.728 76.4983 115.826 76.3863 115.882V116.232L75.4623 122C75.0703 122 74.8463 121.977 74.7903 121.93C74.7343 121.874 74.7063 121.795 74.7063 121.692C74.7063 121.58 74.7156 121.468 74.7343 121.356L75.8263 114.482ZM81.8274 122.07C81.4074 122.07 81.1134 121.991 80.9454 121.832C80.7867 121.673 80.7074 121.412 80.7074 121.048C80.7074 120.684 80.796 119.937 80.9734 118.808L81.4774 115.588L81.5894 115.238H80.9874L81.1134 114.482H81.7154L81.7714 113.992L81.8554 113.376C82.3127 113.376 82.56 113.413 82.5974 113.488C82.616 113.525 82.6254 113.581 82.6254 113.656C82.6254 113.731 82.6114 113.852 82.5834 114.02L82.4294 114.482H83.7174C83.6614 114.827 83.596 115.042 83.5214 115.126C83.4467 115.201 83.246 115.238 82.9194 115.238H82.3034V115.588L81.7994 118.808C81.622 119.956 81.538 120.609 81.5474 120.768C81.5474 121.16 81.6827 121.356 81.9534 121.356H82.9054L82.8074 122L81.8274 122.07ZM85.9629 113.194C85.6456 113.194 85.4869 113.012 85.4869 112.648C85.4869 112.461 85.5523 112.293 85.6829 112.144C85.8136 111.995 85.9769 111.92 86.1729 111.92C86.4809 111.92 86.6349 112.097 86.6349 112.452C86.6349 112.648 86.5696 112.821 86.4389 112.97C86.3083 113.119 86.1496 113.194 85.9629 113.194ZM84.2409 121.944C84.2223 121.907 84.2129 121.851 84.2129 121.776C84.2129 121.701 84.5956 119.27 85.3609 114.482C85.6876 114.482 85.8976 114.496 85.9909 114.524C86.0843 114.543 86.1309 114.594 86.1309 114.678C86.1309 114.753 86.1123 114.902 86.0749 115.126L84.9829 122.056C84.5256 122.056 84.2783 122.019 84.2409 121.944ZM88.6016 114.482V114.062L88.6296 113.908C88.7696 113.031 88.919 112.513 89.0776 112.354C89.3296 112.083 89.563 111.929 89.7776 111.892C90.2536 111.808 90.7716 111.766 91.3316 111.766L91.2336 112.424C90.5056 112.424 90.0576 112.499 89.8896 112.648C89.7216 112.788 89.5816 113.208 89.4696 113.908L89.3156 114.482H90.5756L90.4496 115.238H89.1756V115.658L88.1676 122C88.009 122.896 87.8736 123.437 87.7616 123.624C87.6496 123.811 87.5236 123.983 87.3836 124.142C87.2436 124.31 87.0896 124.436 86.9216 124.52C86.5016 124.707 85.9976 124.8 85.4096 124.8L85.5076 124.184C85.8716 124.184 86.1656 124.142 86.3896 124.058C86.6043 123.983 86.777 123.839 86.9076 123.624C87.0383 123.409 87.1316 123.19 87.1876 122.966C87.2436 122.751 87.3043 122.429 87.3696 122L88.3496 115.658L88.4896 115.238H87.7336L87.8596 114.482H88.6016ZM95.3699 114.664C95.2952 115.215 94.4599 117.66 92.8639 122C92.8265 122.093 92.7612 122.266 92.6679 122.518C92.5839 122.779 92.5232 122.957 92.4859 123.05C92.4485 123.143 92.3785 123.293 92.2759 123.498C92.1825 123.713 92.0939 123.862 92.0099 123.946C91.9352 124.03 91.8279 124.142 91.6879 124.282C91.5479 124.422 91.4032 124.52 91.2539 124.576C90.8525 124.725 90.4372 124.8 90.0079 124.8L90.0919 124.142C90.6052 124.142 91.0112 123.941 91.3099 123.54C91.6179 123.148 91.7719 122.677 91.7719 122.126C91.7719 121.818 91.6972 119.27 91.5479 114.482C91.9492 114.482 92.1825 114.51 92.2479 114.566C92.3225 114.622 92.3645 114.809 92.3739 115.126L92.4299 121.02H92.6119L94.6699 114.482H95.0059C95.1925 114.482 95.2999 114.501 95.3279 114.538C95.3559 114.575 95.3699 114.617 95.3699 114.664ZM101.835 114.384C102.405 114.384 102.801 114.515 103.025 114.776C103.259 115.037 103.375 115.448 103.375 116.008C103.375 116.568 103.333 117.17 103.249 117.814C103.175 118.449 103.053 119.111 102.885 119.802C102.727 120.483 102.479 121.053 102.143 121.51C101.817 121.958 101.439 122.182 101.009 122.182C100.832 122.182 100.361 121.939 99.5952 121.454L99.0632 124.8C98.6152 124.8 98.3726 124.763 98.3352 124.688C98.3166 124.651 98.3072 124.595 98.3072 124.52C98.3072 124.445 98.3212 124.324 98.3492 124.156L99.8892 114.482L101.835 114.384ZM100.911 121.426C101.247 121.426 101.546 121.081 101.807 120.39C102.069 119.699 102.251 118.99 102.353 118.262C102.456 117.525 102.507 116.899 102.507 116.386C102.507 115.863 102.461 115.523 102.367 115.364C102.274 115.205 102.031 115.126 101.639 115.126H100.547V115.476L99.7772 120.376L99.6512 120.726C100.398 121.193 100.818 121.426 100.911 121.426ZM104.963 121.944C104.944 121.907 104.935 121.851 104.935 121.776C104.935 121.701 105.457 118.36 106.503 111.752C106.96 111.752 107.207 111.789 107.245 111.864C107.263 111.901 107.273 111.962 107.273 112.046C107.273 112.121 106.75 115.457 105.705 122.056C105.247 122.056 105 122.019 104.963 121.944ZM109.283 122.098C108.732 122.098 108.373 121.995 108.205 121.79C108.037 121.585 107.953 121.221 107.953 120.698C107.953 120.166 107.99 119.573 108.065 118.92C108.139 118.267 108.256 117.576 108.415 116.848C108.583 116.12 108.83 115.513 109.157 115.028C109.493 114.543 109.88 114.3 110.319 114.3C110.459 114.3 110.617 114.333 110.795 114.398C110.972 114.454 111.182 114.519 111.425 114.594C111.667 114.669 111.845 114.725 111.957 114.762C112.069 114.799 112.181 114.841 112.293 114.888C112.498 114.981 112.601 115.089 112.601 115.21C112.601 115.247 112.251 117.511 111.551 122C111.224 122 111.009 121.986 110.907 121.958C110.804 121.921 110.762 121.837 110.781 121.706L110.907 120.782L109.283 122.098ZM110.403 115.098C110.048 115.098 109.74 115.49 109.479 116.274C109.217 117.058 109.04 117.837 108.947 118.612C108.853 119.377 108.807 119.961 108.807 120.362C108.807 120.754 108.839 121.006 108.905 121.118C108.97 121.221 109.143 121.272 109.423 121.272L111.075 120.068V119.718L111.705 115.84L111.817 115.49C111.014 115.229 110.543 115.098 110.403 115.098ZM114.661 114.482C115.006 114.482 115.221 114.491 115.305 114.51C115.398 114.529 115.445 114.58 115.445 114.664C115.445 114.739 115.426 114.907 115.389 115.168C115.492 115.112 115.646 115.009 115.851 114.86C116.29 114.543 116.593 114.384 116.761 114.384C117.321 114.384 117.704 114.468 117.909 114.636C118.124 114.795 118.231 115.103 118.231 115.56C118.231 116.017 117.928 118.164 117.321 122C116.929 122 116.705 121.977 116.649 121.93C116.593 121.874 116.565 121.795 116.565 121.692C116.565 121.58 116.7 120.651 116.971 118.906C117.251 117.161 117.391 116.148 117.391 115.868C117.391 115.579 117.34 115.383 117.237 115.28C117.134 115.177 116.999 115.126 116.831 115.126C116.663 115.126 116.495 115.168 116.327 115.252C116.168 115.336 115.972 115.448 115.739 115.588C115.506 115.728 115.333 115.826 115.221 115.882V116.232L114.297 122C113.905 122 113.681 121.977 113.625 121.93C113.569 121.874 113.541 121.795 113.541 121.692C113.541 121.58 113.55 121.468 113.569 121.356L114.661 114.482ZM120.662 122.07C120.242 122.07 119.948 121.991 119.78 121.832C119.621 121.673 119.542 121.412 119.542 121.048C119.542 120.684 119.631 119.937 119.808 118.808L120.312 115.588L120.424 115.238H119.822L119.948 114.482H120.55L120.606 113.992L120.69 113.376C121.147 113.376 121.395 113.413 121.432 113.488C121.451 113.525 121.46 113.581 121.46 113.656C121.46 113.731 121.446 113.852 121.418 114.02L121.264 114.482H122.552C122.496 114.827 122.431 115.042 122.356 115.126C122.281 115.201 122.081 115.238 121.754 115.238H121.138V115.588L120.634 118.808C120.457 119.956 120.373 120.609 120.382 120.768C120.382 121.16 120.517 121.356 120.788 121.356H121.74L121.642 122L120.662 122.07ZM128.319 111.864C128.338 111.901 128.347 111.962 128.347 112.046C128.347 112.121 128.231 112.9 127.997 114.384H129.033C129.621 114.384 130.027 114.501 130.251 114.734C130.485 114.967 130.601 115.345 130.601 115.868C130.601 116.391 130.564 116.974 130.489 117.618C130.415 118.262 130.298 118.943 130.139 119.662C129.981 120.381 129.743 120.983 129.425 121.468C129.108 121.944 128.739 122.182 128.319 122.182C128.151 122.182 127.68 121.874 126.905 121.258C126.849 121.631 126.779 121.851 126.695 121.916C126.621 121.972 126.383 122 125.981 122L127.591 111.752C128.039 111.752 128.282 111.789 128.319 111.864ZM128.221 121.426C128.539 121.426 128.819 121.053 129.061 120.306C129.313 119.55 129.491 118.789 129.593 118.024C129.696 117.249 129.747 116.661 129.747 116.26C129.747 115.849 129.687 115.56 129.565 115.392C129.444 115.215 129.243 115.126 128.963 115.126H127.745L127.815 115.392L127.045 120.362L126.933 120.712C127.717 121.188 128.147 121.426 128.221 121.426ZM136.146 114.664C136.071 115.215 135.236 117.66 133.64 122C133.603 122.093 133.537 122.266 133.444 122.518C133.36 122.779 133.299 122.957 133.262 123.05C133.225 123.143 133.155 123.293 133.052 123.498C132.959 123.713 132.87 123.862 132.786 123.946C132.711 124.03 132.604 124.142 132.464 124.282C132.324 124.422 132.179 124.52 132.03 124.576C131.629 124.725 131.213 124.8 130.784 124.8L130.868 124.142C131.381 124.142 131.787 123.941 132.086 123.54C132.394 123.148 132.548 122.677 132.548 122.126C132.548 121.818 132.473 119.27 132.324 114.482C132.725 114.482 132.959 114.51 133.024 114.566C133.099 114.622 133.141 114.809 133.15 115.126L133.206 121.02H133.388L135.446 114.482H135.782C135.969 114.482 136.076 114.501 136.104 114.538C136.132 114.575 136.146 114.617 136.146 114.664ZM142.611 114.384C143.181 114.384 143.577 114.515 143.801 114.776C144.035 115.037 144.151 115.448 144.151 116.008C144.151 116.568 144.109 117.17 144.025 117.814C143.951 118.449 143.829 119.111 143.661 119.802C143.503 120.483 143.255 121.053 142.919 121.51C142.593 121.958 142.215 122.182 141.785 122.182C141.608 122.182 141.137 121.939 140.371 121.454L139.839 124.8C139.391 124.8 139.149 124.763 139.111 124.688C139.093 124.651 139.083 124.595 139.083 124.52C139.083 124.445 139.097 124.324 139.125 124.156L140.665 114.482L142.611 114.384ZM141.687 121.426C142.023 121.426 142.322 121.081 142.583 120.39C142.845 119.699 143.027 118.99 143.129 118.262C143.232 117.525 143.283 116.899 143.283 116.386C143.283 115.863 143.237 115.523 143.143 115.364C143.05 115.205 142.807 115.126 142.415 115.126H141.323V115.476L140.553 120.376L140.427 120.726C141.174 121.193 141.594 121.426 141.687 121.426ZM148.077 111.864C148.095 111.901 148.105 111.957 148.105 112.032C148.105 112.107 147.988 112.891 147.755 114.384H149.085C149.598 114.384 149.957 114.496 150.163 114.72C150.368 114.935 150.471 115.271 150.471 115.728C150.471 116.185 150.177 118.276 149.589 122C149.131 122 148.884 121.963 148.847 121.888C148.828 121.851 148.819 121.799 148.819 121.734C149.341 118.346 149.603 116.484 149.603 116.148C149.603 115.803 149.556 115.546 149.463 115.378C149.369 115.21 149.201 115.126 148.959 115.126H147.601V115.476L146.663 121.356C146.616 121.673 146.551 121.86 146.467 121.916C146.392 121.972 146.149 122 145.739 122L147.349 111.752C147.797 111.752 148.039 111.789 148.077 111.864ZM158.29 122.07C157.87 122.07 157.576 121.991 157.408 121.832C157.25 121.673 157.17 121.412 157.17 121.048C157.17 120.684 157.259 119.937 157.436 118.808L157.94 115.49L158.052 115.14H156.092C156.148 115.336 156.176 115.677 156.176 116.162C156.176 116.638 156.13 117.217 156.036 117.898C155.952 118.57 155.812 119.237 155.616 119.9C155.42 120.563 155.126 121.095 154.734 121.496C154.352 121.897 153.876 122.098 153.306 122.098C152.746 122.098 152.35 121.986 152.116 121.762C151.892 121.538 151.78 121.113 151.78 120.488C151.78 119.853 151.822 119.205 151.906 118.542C151.99 117.87 152.13 117.207 152.326 116.554C152.522 115.901 152.812 115.378 153.194 114.986C153.586 114.585 154.053 114.384 154.594 114.384H158.178L158.318 113.376C158.776 113.376 159.023 113.413 159.06 113.488C159.079 113.525 159.088 113.581 159.088 113.656C159.088 113.731 159.074 113.852 159.046 114.02L158.892 114.384H160.18C160.124 114.729 160.059 114.944 159.984 115.028C159.91 115.103 159.709 115.14 159.382 115.14H158.766V115.49L158.262 118.808C158.085 119.956 158.001 120.609 158.01 120.768C158.01 121.16 158.146 121.356 158.416 121.356H159.368L159.27 122L158.29 122.07ZM152.816 121.132C152.947 121.281 153.171 121.356 153.488 121.356C153.806 121.356 154.09 121.155 154.342 120.754C154.594 120.343 154.786 119.844 154.916 119.256C155.187 118.089 155.322 117.039 155.322 116.106C155.322 115.751 155.257 115.499 155.126 115.35C155.005 115.201 154.786 115.126 154.468 115.126C154.151 115.126 153.866 115.322 153.614 115.714C153.362 116.106 153.171 116.591 153.04 117.17C152.77 118.309 152.634 119.373 152.634 120.362C152.634 120.717 152.695 120.973 152.816 121.132ZM165.142 119.9C164.946 120.563 164.652 121.095 164.26 121.496C163.877 121.897 163.401 122.098 162.832 122.098C162.272 122.098 161.875 121.986 161.642 121.762C161.418 121.538 161.306 121.113 161.306 120.488C161.306 119.853 161.348 119.205 161.432 118.542C161.516 117.87 161.656 117.207 161.852 116.554C162.048 115.901 162.337 115.378 162.72 114.986C163.112 114.585 163.588 114.384 164.148 114.384C164.717 114.384 165.118 114.496 165.352 114.72C165.585 114.935 165.702 115.35 165.702 115.966C165.702 116.573 165.655 117.217 165.562 117.898C165.478 118.57 165.338 119.237 165.142 119.9ZM162.342 121.132C162.472 121.281 162.696 121.356 163.014 121.356C163.331 121.356 163.616 121.155 163.868 120.754C164.12 120.343 164.311 119.844 164.442 119.256C164.712 118.089 164.848 117.039 164.848 116.106C164.848 115.751 164.782 115.499 164.652 115.35C164.53 115.201 164.311 115.126 163.994 115.126C163.676 115.126 163.392 115.322 163.14 115.714C162.888 116.106 162.696 116.591 162.566 117.17C162.295 118.309 162.16 119.373 162.16 120.362C162.16 120.717 162.22 120.973 162.342 121.132Z" fill="black"/>
<line x1="-8.71768e-05" y1="98.8278" x2="223" y2="98.75" stroke="black" stroke-opacity="0.3" stroke-width="0.5"/>
<defs>
<clipPath id="clip0">
<rect width="85" height="86" fill="white"/>
</clipPath>
</defs>
</svg>
