<svg width="25" height="25" viewBox="0 0 25 25" fill="none" xmlns="http://www.w3.org/2000/svg">
<path d="M24.7633 23.6399L18.3086 17.2884C19.9989 15.452 21.0374 13.0234 21.0374 10.3508C21.0366 4.63387 16.3276 0 10.5183 0C4.70901 0 0 4.63387 0 10.3508C0 16.0678 4.70901 20.7017 10.5183 20.7017C13.0283 20.7017 15.3305 19.8335 17.1388 18.3902L23.6185 24.7667C23.9342 25.0777 24.4468 25.0777 24.7626 24.7667C25.079 24.4557 25.079 23.9509 24.7633 23.6399ZM10.5183 19.1092C5.603 19.1092 1.61839 15.1879 1.61839 10.3508C1.61839 5.51376 5.603 1.59254 10.5183 1.59254C15.4336 1.59254 19.4182 5.51376 19.4182 10.3508C19.4182 15.1879 15.4336 19.1092 10.5183 19.1092Z" fill="white"/>
</svg>
