<svg width="156" height="43" viewBox="0 0 156 43" fill="none" xmlns="http://www.w3.org/2000/svg">
<rect x="0.5" y="0.5" width="155" height="42" rx="9.5" stroke="black" stroke-opacity="0.24"/>
<path d="M27.4663 29.8261H27.2903V15.7021L27.3783 15.1521H24.9143V13.9861H31.1403V15.1521H28.6543L28.7423 15.7021V28.8141C28.7423 29.3128 28.6836 29.6061 28.5663 29.6941C28.4636 29.7821 28.0969 29.8261 27.4663 29.8261ZM35.977 21.5321V20.3001C35.977 19.7134 35.9037 19.3468 35.757 19.2001C35.625 19.0388 35.295 18.9581 34.767 18.9581L33.667 19.1781C33.5203 19.2074 33.4103 19.2221 33.337 19.2221C32.8237 19.2221 32.567 18.8921 32.567 18.2321L34.767 17.8581C35.867 17.8581 36.5343 18.0048 36.769 18.2981C36.8863 18.4448 36.9743 18.5694 37.033 18.6721C37.1063 18.7748 37.1503 18.9581 37.165 19.2221C37.209 19.6474 37.231 20.1388 37.231 20.6961V29.8261C36.571 29.8261 36.1823 29.7821 36.065 29.6941C35.9477 29.5914 35.889 29.2688 35.889 28.7261C35.7423 28.8141 35.537 28.9754 35.273 29.2101C34.7157 29.7234 34.2463 29.9801 33.865 29.9801C32.9703 29.9801 32.435 29.7014 32.259 29.1441C32.0977 28.5721 32.017 27.0028 32.017 24.4361C32.017 23.4534 32.4423 22.8008 33.293 22.4781C33.997 22.2141 34.8917 22.0821 35.977 22.0821H36.065L35.977 21.5321ZM35.889 23.3141C35.0383 23.3141 34.393 23.3801 33.953 23.5121C33.5277 23.6294 33.315 23.8788 33.315 24.2601C33.315 26.9441 33.3737 28.4108 33.491 28.6601C33.5497 28.7628 33.6817 28.8141 33.887 28.8141C34.0923 28.8141 34.3123 28.7554 34.547 28.6381C34.7963 28.5208 35.053 28.3668 35.317 28.1761C35.5957 27.9708 35.8157 27.8314 35.977 27.7581L35.889 27.2081V23.8641L35.977 23.3141H35.889ZM39.8665 28.8141V13.7221C40.5119 13.7221 40.8859 13.7661 40.9885 13.8541C41.1059 13.9421 41.1645 14.2354 41.1645 14.7341V29.8261C40.5192 29.8261 40.1379 29.7821 40.0205 29.6941C39.9179 29.6061 39.8665 29.3128 39.8665 28.8141ZM45.8065 29.8261H44.3765L41.4285 23.3801L44.0685 18.0121H45.4105L42.7485 23.3801L45.8065 29.8261ZM52.9888 29.6061C51.8595 29.8554 51.0675 29.9801 50.6128 29.9801C50.1728 29.9801 49.8282 29.9654 49.5788 29.9361C49.3442 29.9214 49.1242 29.8701 48.9188 29.7821C48.7282 29.6794 48.5595 29.5988 48.4128 29.5401C48.2662 29.4668 48.1342 29.3348 48.0168 29.1441C47.8995 28.9388 47.8042 28.7774 47.7308 28.6601C47.6575 28.5281 47.5988 28.3081 47.5548 28.0001C47.5108 27.6921 47.4742 27.4428 47.4448 27.2521C47.4155 27.0614 47.3935 26.7534 47.3788 26.3281C47.3642 25.8881 47.3568 25.5361 47.3568 25.2721V22.7861C47.3568 21.8181 47.3788 21.1948 47.4228 20.9161C47.4668 20.6228 47.5108 20.3148 47.5548 19.9921C47.5988 19.6694 47.6575 19.4421 47.7308 19.3101C47.8042 19.1634 47.8995 18.9874 48.0168 18.7821C48.1342 18.5768 48.2662 18.4374 48.4128 18.3641C48.5595 18.2761 48.7282 18.1881 48.9188 18.1001C49.1242 17.9974 49.3442 17.9314 49.5788 17.9021C49.8282 17.8728 50.1068 17.8581 50.4148 17.8581C50.7228 17.8581 51.0015 17.8801 51.2508 17.9241C51.5002 17.9681 51.7055 18.0561 51.8668 18.1881C52.0428 18.3201 52.1895 18.4448 52.3068 18.5621C52.4388 18.6794 52.5415 18.8701 52.6148 19.1341C52.7028 19.3981 52.7688 19.6254 52.8128 19.8161C52.8568 19.9921 52.8862 20.2781 52.9008 20.6741C52.9302 21.0554 52.9448 21.3634 52.9448 21.5981V22.7421L53.0328 23.9301L48.5448 24.0401L48.6328 24.5901C48.6328 26.4674 48.7062 27.5528 48.8528 27.8461C49.0875 28.3301 49.3588 28.6088 49.6668 28.6821C49.8722 28.7408 50.2682 28.7701 50.8548 28.7701C51.4562 28.7701 52.1675 28.6748 52.9888 28.4841V29.6061ZM48.7648 21.1141C48.7648 21.3781 48.7648 21.7741 48.7648 22.3021L48.6768 22.8521H51.8008L51.6908 22.2801C51.6908 21.1068 51.6102 20.2708 51.4488 19.7721C51.2875 19.2734 50.9208 19.0241 50.3488 19.0241C49.7915 19.0241 49.3955 19.1781 49.1608 19.4861C48.9262 19.7794 48.7942 20.3221 48.7648 21.1141ZM63.7241 29.2541C63.5481 29.4741 63.3135 29.6428 63.0201 29.7601C62.7268 29.8628 62.3675 29.9141 61.9421 29.9141C61.5168 29.9141 60.6441 29.8041 59.3241 29.5841V28.4181C59.3828 28.4181 59.7495 28.4548 60.4241 28.5281C61.1135 28.6014 61.6268 28.6381 61.9641 28.6381C62.7855 28.6381 63.1961 27.8754 63.1961 26.3501C63.1961 26.2474 63.1961 26.1448 63.1961 26.0421C63.1815 25.5728 62.7268 25.0008 61.8321 24.3261C60.9375 23.6368 60.2775 23.0354 59.8521 22.5221C59.4268 22.0088 59.2141 21.4881 59.2141 20.9601C59.2141 20.4321 59.2215 20.0654 59.2361 19.8601C59.2508 19.6548 59.3021 19.3981 59.3901 19.0901C59.4781 18.7821 59.6101 18.5621 59.7861 18.4301C60.2408 18.0634 60.9301 17.8801 61.8541 17.8801L63.9441 18.1881C63.9441 18.8334 63.6801 19.1561 63.1521 19.1561C63.0495 19.1561 62.9468 19.1488 62.8441 19.1341L61.9421 19.0021C61.2235 19.0021 60.7835 19.1634 60.6221 19.4861C60.4901 19.7648 60.4241 20.1754 60.4241 20.7181C60.4241 21.2461 60.9961 21.9648 62.1401 22.8741C62.6681 23.2701 63.0641 23.5854 63.3281 23.8201C63.6068 24.0548 63.8708 24.3628 64.1201 24.7441C64.3841 25.1254 64.5161 25.4994 64.5161 25.8661C64.5161 26.2181 64.5088 26.5261 64.4941 26.7901C64.4795 27.0394 64.4428 27.3401 64.3841 27.6921C64.3401 28.0441 64.2595 28.3374 64.1421 28.5721C64.0395 28.8068 63.9001 29.0341 63.7241 29.2541ZM66.6498 23.9301V22.5221C66.6498 21.4514 66.6718 20.7768 66.7158 20.4981C66.7745 20.2194 66.8331 19.9188 66.8918 19.5961C66.9651 19.2734 67.0458 19.0534 67.1338 18.9361C67.2365 18.8041 67.3538 18.6501 67.4858 18.4741C67.6325 18.2981 67.8085 18.1808 68.0138 18.1221C68.5125 17.9461 69.0185 17.8581 69.5318 17.8581L71.3578 18.1441C71.3578 18.7894 71.0938 19.1121 70.5658 19.1121C70.4631 19.1121 70.3605 19.1048 70.2578 19.0901L69.5318 19.0241C68.7838 19.0241 68.3291 19.3394 68.1678 19.9701C68.0065 20.5861 67.9258 21.6568 67.9258 23.1821C67.9258 24.7074 67.9331 25.6974 67.9478 26.1521C67.9625 26.6068 68.0211 27.0908 68.1238 27.6041C68.2265 28.1028 68.3878 28.4328 68.6078 28.5941C68.8278 28.7408 69.1358 28.8141 69.5318 28.8141L71.4458 28.5941V29.6061L69.5318 29.9801C68.7398 29.9801 68.2118 29.8848 67.9478 29.6941C67.6838 29.5034 67.4858 29.3494 67.3538 29.2321C67.2218 29.1001 67.1045 28.8728 67.0018 28.5501C66.9138 28.2274 66.8478 27.9561 66.8038 27.7361C66.7598 27.5161 66.7231 27.1568 66.6938 26.6581C66.6645 25.8074 66.6498 24.8981 66.6498 23.9301ZM73.7663 28.8141V18.0121C74.4116 18.0121 74.7856 18.0414 74.8883 18.1001C75.0056 18.1441 75.0643 18.3348 75.0643 18.6721V18.9141L76.8243 17.8581C77.0736 17.8581 77.4403 17.9094 77.9243 18.0121C77.9243 18.5254 77.873 18.8261 77.7703 18.9141C77.6823 18.9874 77.367 19.0241 76.8243 19.0241L74.9543 20.0581L75.0643 20.6081V29.8261C74.419 29.8261 74.0376 29.7821 73.9203 29.6941C73.8176 29.6061 73.7663 29.3128 73.7663 28.8141ZM85.0865 29.6061C83.9572 29.8554 83.1652 29.9801 82.7105 29.9801C82.2705 29.9801 81.9258 29.9654 81.6765 29.9361C81.4418 29.9214 81.2218 29.8701 81.0165 29.7821C80.8258 29.6794 80.6572 29.5988 80.5105 29.5401C80.3638 29.4668 80.2318 29.3348 80.1145 29.1441C79.9972 28.9388 79.9018 28.7774 79.8285 28.6601C79.7552 28.5281 79.6965 28.3081 79.6525 28.0001C79.6085 27.6921 79.5718 27.4428 79.5425 27.2521C79.5132 27.0614 79.4912 26.7534 79.4765 26.3281C79.4618 25.8881 79.4545 25.5361 79.4545 25.2721V22.7861C79.4545 21.8181 79.4765 21.1948 79.5205 20.9161C79.5645 20.6228 79.6085 20.3148 79.6525 19.9921C79.6965 19.6694 79.7552 19.4421 79.8285 19.3101C79.9018 19.1634 79.9972 18.9874 80.1145 18.7821C80.2318 18.5768 80.3638 18.4374 80.5105 18.3641C80.6572 18.2761 80.8258 18.1881 81.0165 18.1001C81.2218 17.9974 81.4418 17.9314 81.6765 17.9021C81.9258 17.8728 82.2045 17.8581 82.5125 17.8581C82.8205 17.8581 83.0992 17.8801 83.3485 17.9241C83.5978 17.9681 83.8032 18.0561 83.9645 18.1881C84.1405 18.3201 84.2872 18.4448 84.4045 18.5621C84.5365 18.6794 84.6392 18.8701 84.7125 19.1341C84.8005 19.3981 84.8665 19.6254 84.9105 19.8161C84.9545 19.9921 84.9838 20.2781 84.9985 20.6741C85.0278 21.0554 85.0425 21.3634 85.0425 21.5981V22.7421L85.1305 23.9301L80.6425 24.0401L80.7305 24.5901C80.7305 26.4674 80.8038 27.5528 80.9505 27.8461C81.1852 28.3301 81.4565 28.6088 81.7645 28.6821C81.9698 28.7408 82.3658 28.7701 82.9525 28.7701C83.5538 28.7701 84.2652 28.6748 85.0865 28.4841V29.6061ZM80.8625 21.1141C80.8625 21.3781 80.8625 21.7741 80.8625 22.3021L80.7745 22.8521H83.8985L83.7885 22.2801C83.7885 21.1068 83.7078 20.2708 83.5465 19.7721C83.3852 19.2734 83.0185 19.0241 82.4465 19.0241C81.8892 19.0241 81.4932 19.1781 81.2585 19.4861C81.0238 19.7794 80.8918 20.3221 80.8625 21.1141ZM92.8424 29.6061C91.713 29.8554 90.921 29.9801 90.4664 29.9801C90.0264 29.9801 89.6817 29.9654 89.4324 29.9361C89.1977 29.9214 88.9777 29.8701 88.7724 29.7821C88.5817 29.6794 88.413 29.5988 88.2664 29.5401C88.1197 29.4668 87.9877 29.3348 87.8704 29.1441C87.753 28.9388 87.6577 28.7774 87.5844 28.6601C87.511 28.5281 87.4524 28.3081 87.4084 28.0001C87.3644 27.6921 87.3277 27.4428 87.2984 27.2521C87.269 27.0614 87.247 26.7534 87.2324 26.3281C87.2177 25.8881 87.2104 25.5361 87.2104 25.2721V22.7861C87.2104 21.8181 87.2324 21.1948 87.2764 20.9161C87.3204 20.6228 87.3644 20.3148 87.4084 19.9921C87.4524 19.6694 87.511 19.4421 87.5844 19.3101C87.6577 19.1634 87.753 18.9874 87.8704 18.7821C87.9877 18.5768 88.1197 18.4374 88.2664 18.3641C88.413 18.2761 88.5817 18.1881 88.7724 18.1001C88.9777 17.9974 89.1977 17.9314 89.4324 17.9021C89.6817 17.8728 89.9604 17.8581 90.2684 17.8581C90.5764 17.8581 90.855 17.8801 91.1044 17.9241C91.3537 17.9681 91.559 18.0561 91.7204 18.1881C91.8964 18.3201 92.043 18.4448 92.1604 18.5621C92.2924 18.6794 92.395 18.8701 92.4684 19.1341C92.5564 19.3981 92.6224 19.6254 92.6664 19.8161C92.7104 19.9921 92.7397 20.2781 92.7544 20.6741C92.7837 21.0554 92.7984 21.3634 92.7984 21.5981V22.7421L92.8864 23.9301L88.3984 24.0401L88.4864 24.5901C88.4864 26.4674 88.5597 27.5528 88.7064 27.8461C88.941 28.3301 89.2124 28.6088 89.5204 28.6821C89.7257 28.7408 90.1217 28.7701 90.7084 28.7701C91.3097 28.7701 92.021 28.6748 92.8424 28.4841V29.6061ZM88.6184 21.1141C88.6184 21.3781 88.6184 21.7741 88.6184 22.3021L88.5304 22.8521H91.6544L91.5444 22.2801C91.5444 21.1068 91.4637 20.2708 91.3024 19.7721C91.141 19.2734 90.7744 19.0241 90.2024 19.0241C89.645 19.0241 89.249 19.1781 89.0144 19.4861C88.7797 19.7794 88.6477 20.3221 88.6184 21.1141ZM99.9382 28.8141V23.9521C99.9382 21.7081 99.8722 20.3294 99.7402 19.8161C99.6082 19.2881 99.2122 19.0241 98.5522 19.0241L96.3962 19.7941L96.4842 20.3441V29.8261C95.8389 29.8261 95.4575 29.7821 95.3402 29.6941C95.2375 29.6061 95.1862 29.3128 95.1862 28.8141V18.0121C95.8315 18.0121 96.2055 18.0414 96.3082 18.1001C96.4255 18.1441 96.4842 18.3348 96.4842 18.6721L98.4642 17.8581C99.7842 17.8581 100.576 18.1954 100.84 18.8701C101.104 19.5448 101.236 21.2461 101.236 23.9741V29.8261C100.591 29.8261 100.21 29.7821 100.092 29.6941C99.9895 29.6061 99.9382 29.3128 99.9382 28.8141ZM107.96 29.2541C107.784 29.4741 107.55 29.6428 107.256 29.7601C106.963 29.8628 106.604 29.9141 106.178 29.9141C105.753 29.9141 104.88 29.8041 103.56 29.5841V28.4181C103.619 28.4181 103.986 28.4548 104.66 28.5281C105.35 28.6014 105.863 28.6381 106.2 28.6381C107.022 28.6381 107.432 27.8754 107.432 26.3501C107.432 26.2474 107.432 26.1448 107.432 26.0421C107.418 25.5728 106.963 25.0008 106.068 24.3261C105.174 23.6368 104.514 23.0354 104.088 22.5221C103.663 22.0088 103.45 21.4881 103.45 20.9601C103.45 20.4321 103.458 20.0654 103.472 19.8601C103.487 19.6548 103.538 19.3981 103.626 19.0901C103.714 18.7821 103.846 18.5621 104.022 18.4301C104.477 18.0634 105.166 17.8801 106.09 17.8801L108.18 18.1881C108.18 18.8334 107.916 19.1561 107.388 19.1561C107.286 19.1561 107.183 19.1488 107.08 19.1341L106.178 19.0021C105.46 19.0021 105.02 19.1634 104.858 19.4861C104.726 19.7648 104.66 20.1754 104.66 20.7181C104.66 21.2461 105.232 21.9648 106.376 22.8741C106.904 23.2701 107.3 23.5854 107.564 23.8201C107.843 24.0548 108.107 24.3628 108.356 24.7441C108.62 25.1254 108.752 25.4994 108.752 25.8661C108.752 26.2181 108.745 26.5261 108.73 26.7901C108.716 27.0394 108.679 27.3401 108.62 27.6921C108.576 28.0441 108.496 28.3374 108.378 28.5721C108.276 28.8068 108.136 29.0341 107.96 29.2541ZM115.968 28.8141V23.9521C115.968 22.0748 115.895 20.7841 115.748 20.0801C115.601 19.3761 115.213 19.0241 114.582 19.0241L112.426 19.7941L112.514 20.3441V28.8141C112.514 29.3128 112.455 29.6061 112.338 29.6941C112.235 29.7821 111.861 29.8261 111.216 29.8261V13.7221C111.847 13.7221 112.213 13.7661 112.316 13.8541C112.433 13.9421 112.492 14.2354 112.492 14.7341V18.6721L114.582 17.8581C115.829 17.8581 116.584 18.2614 116.848 19.0681C117.127 19.8748 117.266 21.5101 117.266 23.9741V29.8261C116.621 29.8261 116.239 29.7821 116.122 29.6941C116.019 29.6061 115.968 29.3128 115.968 28.8141ZM127.838 24.8101V19.7501L127.926 19.0461H124.912C125.176 19.6328 125.315 20.5274 125.33 21.7301C125.344 22.1848 125.352 22.6541 125.352 23.1381V23.9521C125.352 26.0054 125.315 27.2081 125.242 27.5601C125.168 27.9121 125.08 28.2494 124.978 28.5721C124.89 28.8801 124.78 29.1001 124.648 29.2321C124.516 29.3494 124.347 29.4814 124.142 29.6281C123.819 29.8628 123.262 29.9801 122.47 29.9801C121.443 29.9801 120.761 29.7674 120.424 29.3421C120.277 29.1661 120.152 29.0121 120.05 28.8801C119.962 28.7481 119.881 28.5208 119.808 28.1981C119.749 27.8754 119.698 27.6114 119.654 27.4061C119.624 27.2008 119.602 26.8634 119.588 26.3941C119.573 25.9101 119.566 25.5288 119.566 25.2501V22.4781C119.566 21.4221 119.588 20.7548 119.632 20.4761C119.69 20.1974 119.749 19.8968 119.808 19.5741C119.881 19.2514 119.962 19.0314 120.05 18.9141C120.152 18.7821 120.277 18.6281 120.424 18.4521C120.57 18.2761 120.739 18.1588 120.93 18.1001C121.487 17.9388 122 17.8581 122.47 17.8581H127.926L127.838 17.2421V16.2741C128.483 16.2741 128.857 16.3181 128.96 16.4061C129.077 16.4941 129.136 16.7874 129.136 17.2861L129.048 17.8581H131.072C131.072 18.4008 131.02 18.7381 130.918 18.8701C130.83 18.9874 130.529 19.0461 130.016 19.0461H129.048L129.136 19.7501V24.8101C129.136 26.4821 129.18 27.5674 129.268 28.0661C129.356 28.5648 129.605 28.8141 130.016 28.8141H131.512V29.8261L129.994 29.9361C128.982 29.9361 128.366 29.6281 128.146 29.0121C127.94 28.3814 127.838 26.9808 127.838 24.8101ZM124.054 24.3701V22.8741C124.054 21.2754 123.98 20.2708 123.834 19.8601C123.628 19.3028 123.174 19.0241 122.47 19.0241C122.074 19.0241 121.766 19.0901 121.546 19.2221C121.326 19.3394 121.164 19.6108 121.062 20.0361C120.959 20.4468 120.9 20.8428 120.886 21.2241C120.871 21.5908 120.864 22.0528 120.864 22.6101V23.6221C120.864 25.7634 120.9 27.0394 120.974 27.4501C121.106 28.2274 121.458 28.6674 122.03 28.7701C122.162 28.7994 122.33 28.8141 122.536 28.8141C122.756 28.8141 122.954 28.7921 123.13 28.7481C123.32 28.6894 123.474 28.5721 123.592 28.3961C123.709 28.2054 123.797 28.0368 123.856 27.8901C123.914 27.7288 123.958 27.4501 123.988 27.0541C124.032 26.4381 124.054 25.8514 124.054 25.2941V24.3701Z" fill="black"/>
</svg>
