<svg width="25" height="25" viewBox="0 0 25 25" fill="none" xmlns="http://www.w3.org/2000/svg">
<path d="M12.5 0C8.86528 0 5.9082 2.95708 5.9082 6.5918C5.9082 10.2265 8.86528 13.1836 12.5 13.1836C16.1347 13.1836 19.0918 10.2265 19.0918 6.5918C19.0918 2.95708 16.1347 0 12.5 0Z" fill="white" fill-opacity="0.89"/>
<path d="M20.7015 17.49C18.8968 15.6576 16.5043 14.6484 13.9648 14.6484H11.0352C8.4957 14.6484 6.10322 15.6576 4.29853 17.49C2.50269 19.3134 1.51367 21.7204 1.51367 24.2676C1.51367 24.6721 1.8416 25 2.24609 25H22.7539C23.1584 25 23.4863 24.6721 23.4863 24.2676C23.4863 21.7204 22.4973 19.3134 20.7015 17.49Z" fill="white" fill-opacity="0.89"/>
</svg>
